<svg xmlns="http://www.w3.org/2000/svg" viewBox="0 0 1200 1200"><defs><style>.cls-1{fill:#323234;}.cls-2{opacity:0.15;}.cls-3,.cls-4,.cls-5{fill:none;stroke:#d7be8a;stroke-linejoin:round;}.cls-3,.cls-5{stroke-linecap:round;}.cls-3,.cls-4{stroke-width:2px;}.cls-5{stroke-width:3px;}</style></defs><g id="Background"><g id="Background-2" data-name="Background"><rect class="cls-1" width="1200" height="1200"/><g class="cls-2"><circle class="cls-3" cx="600" cy="600" r="503.57"/><circle class="cls-3" cx="600" cy="474.58" r="123.65"/><circle class="cls-3" cx="600" cy="600" r="573.95"/><circle class="cls-3" cx="600" cy="600" r="550.36"/><circle class="cls-3" cx="600" cy="600" r="533.33"/><path class="cls-3" d="M66.75,590.93C131,562.66,351.1,474.58,600,474.58s469,88.08,533.25,116.35"/><path class="cls-3" d="M808,108.77c107.58,68.72,178.9,189.18,178.9,326.3C986.93,648.77,813.7,822,600,822S213.07,648.77,213.07,435.07c0-136.89,71.09-257.18,178.37-326"/><line class="cls-3" x1="600" y1="1133.33" x2="600" y2="66.67"/><line class="cls-3" x1="66.67" y1="600" x2="1133.33" y2="600"/><line class="cls-3" x1="866.32" y1="1062.18" x2="332.88" y2="138.24"/><line class="cls-3" x1="333.68" y1="1062.18" x2="867.12" y2="138.24"/><line class="cls-3" x1="1062.12" y1="334.09" x2="138.92" y2="867.1"/><line class="cls-3" x1="1061.56" y1="867.38" x2="137.34" y2="333.79"/><path class="cls-3" d="M1131,646.39c-50.21,101.22-198.21,323.12-531,323.12-333.1,0-481.07-222.33-531.13-323.42"/><polygon class="cls-3" points="224.13 626.23 216.82 628.68 215.28 621.12 213.75 628.68 206.43 626.23 212.22 631.34 206.43 636.45 213.75 634 215.28 641.56 216.82 634 224.13 636.45 218.35 631.34 224.13 626.23"/><polygon class="cls-3" points="183.07 508.79 175.75 511.24 174.22 503.68 172.68 511.24 165.37 508.79 171.15 513.9 165.37 519.01 172.68 516.55 174.22 524.12 175.75 516.55 183.07 519.01 177.28 513.9 183.07 508.79"/><polygon class="cls-3" points="473.41 537.64 466.09 540.1 464.56 532.53 463.02 540.1 455.7 537.64 461.49 542.76 455.7 547.87 463.02 545.41 464.56 552.98 466.09 545.41 473.41 547.87 467.62 542.76 473.41 537.64"/><polygon class="cls-3" points="437.7 481.04 430.38 483.49 428.85 475.93 427.32 483.49 420 481.04 425.79 486.15 420 491.26 427.32 488.8 428.85 496.37 430.38 488.8 437.7 491.26 431.92 486.15 437.7 481.04"/><polygon class="cls-3" points="455.4 431.32 448.09 433.77 446.55 426.21 445.02 433.77 437.7 431.32 443.49 436.43 437.7 441.54 445.02 439.08 446.55 446.65 448.09 439.08 455.4 441.54 449.62 436.43 455.4 431.32"/><polygon class="cls-3" points="364.15 569.62 356.83 572.07 355.3 564.51 353.76 572.07 346.44 569.62 352.23 574.73 346.44 579.84 353.76 577.38 355.3 584.95 356.83 577.38 364.15 579.84 358.36 574.73 364.15 569.62"/><polygon class="cls-3" points="386.21 710.31 378.89 712.76 377.36 705.2 375.83 712.76 368.51 710.31 374.3 715.42 368.51 720.53 375.83 718.07 377.36 725.64 378.89 718.07 386.21 720.53 380.43 715.42 386.21 710.31"/><polygon class="cls-3" points="323.23 716.29 315.91 718.74 314.38 711.18 312.85 718.74 305.53 716.29 311.31 721.4 305.53 726.51 312.85 724.05 314.38 731.62 315.91 724.05 323.23 726.51 317.45 721.4 323.23 716.29"/><polygon class="cls-3" points="381.85 836.47 374.53 838.92 373 831.36 371.46 838.92 364.15 836.47 369.93 841.58 364.15 846.69 371.46 844.23 373 851.8 374.53 844.23 381.85 846.69 376.06 841.58 381.85 836.47"/><polygon class="cls-3" points="410.58 816.9 403.26 819.35 401.73 811.78 400.19 819.35 392.88 816.9 398.66 822.01 392.88 827.12 400.19 824.66 401.73 832.23 403.26 824.66 410.58 827.12 404.79 822.01 410.58 816.9"/><polygon class="cls-3" points="388.05 880.08 380.73 882.53 379.2 874.97 377.67 882.53 370.35 880.08 376.13 885.19 370.35 890.3 377.67 887.84 379.2 895.41 380.73 887.84 388.05 890.3 382.27 885.19 388.05 880.08"/><polygon class="cls-3" points="279.5 939.95 272.19 942.41 270.65 934.84 269.12 942.41 261.8 939.95 267.59 945.06 261.8 950.17 269.12 947.72 270.65 955.28 272.19 947.72 279.5 950.17 273.72 945.06 279.5 939.95"/><polygon class="cls-3" points="557.84 887.14 550.52 889.6 548.99 882.03 547.46 889.6 540.14 887.14 545.92 892.25 540.14 897.36 547.46 894.91 548.99 902.47 550.52 894.91 557.84 897.36 552.06 892.25 557.84 887.14"/><polygon class="cls-3" points="585.97 997 578.65 999.45 577.12 991.89 575.58 999.45 568.26 997 574.05 1002.11 568.26 1007.22 575.58 1004.76 577.12 1012.33 578.65 1004.76 585.97 1007.22 580.18 1002.11 585.97 997"/><polygon class="cls-3" points="419.94 1019.6 412.63 1022.06 411.09 1014.49 409.56 1022.06 402.24 1019.6 408.03 1024.71 402.24 1029.82 409.56 1027.37 411.09 1034.93 412.63 1027.37 419.94 1029.82 414.16 1024.71 419.94 1019.6"/><polygon class="cls-3" points="708.11 1003.46 700.79 1005.92 699.26 998.35 697.73 1005.92 690.41 1003.46 696.19 1008.57 690.41 1013.68 697.73 1011.23 699.26 1018.79 700.79 1011.23 708.11 1013.68 702.33 1008.57 708.11 1003.46"/><polygon class="cls-3" points="853.76 957.13 846.44 959.58 844.91 952.02 843.37 959.58 836.05 957.13 841.84 962.24 836.05 967.35 843.37 964.89 844.91 972.46 846.44 964.89 853.76 967.35 847.97 962.24 853.76 957.13"/><polygon class="cls-3" points="764.71 893.32 757.39 895.77 755.85 888.21 754.32 895.77 747 893.32 752.79 898.43 747 903.54 754.32 901.09 755.85 908.65 757.39 901.09 764.71 903.54 758.92 898.43 764.71 893.32"/><polygon class="cls-3" points="431.42 749.11 424.1 751.56 422.57 744 421.03 751.56 413.71 749.11 419.5 754.22 413.71 759.33 421.03 756.87 422.57 764.44 424.1 756.87 431.42 759.33 425.63 754.22 431.42 749.11"/><polygon class="cls-3" points="534.86 773.7 527.54 776.15 526 768.59 524.47 776.15 517.15 773.7 522.94 778.81 517.15 783.92 524.47 781.46 526 789.03 527.54 781.46 534.86 783.92 529.07 778.81 534.86 773.7"/><polygon class="cls-3" points="699.44 699.17 692.12 701.63 690.59 694.06 689.05 701.63 681.73 699.17 687.52 704.28 681.73 709.39 689.05 706.94 690.59 714.5 692.12 706.94 699.44 709.39 693.65 704.28 699.44 699.17"/><polygon class="cls-3" points="827.24 820.19 819.92 822.64 818.39 815.08 816.86 822.64 809.54 820.19 815.32 825.3 809.54 830.41 816.86 827.95 818.39 835.52 819.92 827.95 827.24 830.41 821.46 825.3 827.24 820.19"/><polygon class="cls-3" points="995.78 676.35 988.47 678.8 986.93 671.24 985.4 678.8 978.08 676.35 983.87 681.46 978.08 686.57 985.4 684.12 986.93 691.68 988.47 684.12 995.78 686.57 990 681.46 995.78 676.35"/><polygon class="cls-3" points="1058.99 560.84 1051.68 563.29 1050.14 555.73 1048.61 563.29 1041.29 560.84 1047.08 565.95 1041.29 571.06 1048.61 568.6 1050.14 576.17 1051.68 568.6 1058.99 571.06 1053.21 565.95 1058.99 560.84"/><polygon class="cls-3" points="1003.3 342.74 995.98 345.19 994.45 337.63 992.91 345.19 985.6 342.74 991.38 347.85 985.6 352.96 992.91 350.5 994.45 358.07 995.98 350.5 1003.3 352.96 997.51 347.85 1003.3 342.74"/><polygon class="cls-3" points="910.95 467.45 903.63 469.91 902.1 462.34 900.56 469.91 893.25 467.45 899.03 472.56 893.25 477.67 900.56 475.22 902.1 482.78 903.63 475.22 910.95 477.67 905.16 472.56 910.95 467.45"/><polygon class="cls-3" points="782.02 322.59 774.71 325.04 773.17 317.48 771.64 325.04 764.32 322.59 770.11 327.7 764.32 332.81 771.64 330.35 773.17 337.92 774.71 330.35 782.02 332.81 776.24 327.7 782.02 322.59"/><polygon class="cls-3" points="773.36 564.2 766.05 566.66 764.51 559.09 762.98 566.66 755.66 564.2 761.45 569.31 755.66 574.42 762.98 571.97 764.51 579.53 766.05 571.97 773.36 574.42 767.58 569.31 773.36 564.2"/><polygon class="cls-3" points="697.9 236.95 690.59 239.4 689.05 231.84 687.52 239.4 680.2 236.95 685.99 242.06 680.2 247.17 687.52 244.71 689.05 252.28 690.59 244.71 697.9 247.17 692.12 242.06 697.9 236.95"/><polygon class="cls-3" points="649.93 163.22 642.62 165.68 641.08 158.12 639.55 165.68 632.23 163.22 638.02 168.34 632.23 173.45 639.55 170.99 641.08 178.56 642.62 170.99 649.93 173.45 644.15 168.34 649.93 163.22"/><polygon class="cls-3" points="720.07 94.65 712.75 97.1 711.21 89.54 709.68 97.1 702.36 94.65 708.15 99.76 702.36 104.87 709.68 102.41 711.21 109.98 712.75 102.41 720.07 104.87 714.28 99.76 720.07 94.65"/><polygon class="cls-3" points="489.78 148.44 482.46 150.89 480.93 143.33 479.4 150.89 472.08 148.44 477.86 153.55 472.08 158.66 479.4 156.2 480.93 163.77 482.46 156.2 489.78 158.66 484 153.55 489.78 148.44"/><polygon class="cls-3" points="309.55 373.31 302.23 375.76 300.7 368.2 299.17 375.76 291.85 373.31 297.63 378.42 291.85 383.53 299.17 381.07 300.7 388.64 302.23 381.07 309.55 383.53 303.76 378.42 309.55 373.31"/><polygon class="cls-3" points="219.09 327.93 211.77 330.39 210.23 322.82 208.7 330.39 201.38 327.93 207.17 333.04 201.38 338.15 208.7 335.7 210.23 343.26 211.77 335.7 219.09 338.15 213.3 333.04 219.09 327.93"/><polygon class="cls-3" points="273.47 277.54 266.15 280 264.62 272.43 263.09 280 255.77 277.54 261.56 282.65 255.77 287.76 263.09 285.31 264.62 292.87 266.15 285.31 273.47 287.76 267.69 282.65 273.47 277.54"/><polygon class="cls-3" points="636.91 473.66 629.6 476.11 628.06 468.55 626.53 476.11 619.21 473.66 625 478.77 619.21 483.88 626.53 481.43 628.06 488.99 629.6 481.43 636.91 483.88 631.13 478.77 636.91 473.66"/><polygon class="cls-3" points="971.91 919.83 964.59 922.28 963.06 914.72 961.53 922.28 954.21 919.83 959.99 924.94 954.21 930.05 961.53 927.6 963.06 935.16 964.59 927.6 971.91 930.05 966.13 924.94 971.91 919.83"/><polygon class="cls-3" points="1004.24 844.86 996.93 847.32 995.39 839.75 993.86 847.32 986.54 844.86 992.33 849.98 986.54 855.09 993.86 852.63 995.39 860.2 996.93 852.63 1004.24 855.09 998.46 849.98 1004.24 844.86"/><polygon class="cls-3" points="1001.82 731.65 994.5 734.11 992.97 726.54 991.43 734.11 984.11 731.65 989.9 736.76 984.11 741.88 991.43 739.42 992.97 746.99 994.5 739.42 1001.82 741.88 996.03 736.76 1001.82 731.65"/><polygon class="cls-3" points="933.3 808.3 925.98 810.76 924.45 803.2 922.91 810.76 915.59 808.3 921.38 813.41 915.59 818.52 922.91 816.07 924.45 823.64 925.98 816.07 933.3 818.52 927.51 813.41 933.3 808.3"/><path class="cls-3" d="M509.51,603.7c0,3.27-3.46,4.71-3.46,4.71s3.46,1.43,3.46,4.71c0-3.28,3.46-4.71,3.46-4.71S509.51,607,509.51,603.7Z"/><path class="cls-3" d="M168.83,435.89c0,3.28-3.46,4.71-3.46,4.71s3.46,1.44,3.46,4.71c0-3.27,3.46-4.71,3.46-4.71S168.83,439.17,168.83,435.89Z"/><path class="cls-3" d="M123.77,465.11c0,3.27-3.46,4.71-3.46,4.71s3.46,1.44,3.46,4.71c0-3.27,3.46-4.71,3.46-4.71S123.77,468.38,123.77,465.11Z"/><path class="cls-3" d="M165.37,629.34c0,3.28-3.47,4.71-3.47,4.71s3.47,1.44,3.47,4.71c0-3.27,3.46-4.71,3.46-4.71S165.37,632.62,165.37,629.34Z"/><path class="cls-3" d="M172.29,709c0,3.27-3.46,4.71-3.46,4.71s3.46,1.43,3.46,4.71c0-3.28,3.46-4.71,3.46-4.71S172.29,712.23,172.29,709Z"/><path class="cls-3" d="M262.49,552.27c0,3.27-3.46,4.71-3.46,4.71s3.46,1.43,3.46,4.7c0-3.27,3.46-4.7,3.46-4.7S262.49,555.54,262.49,552.27Z"/><path class="cls-3" d="M285.26,575c0,3.27-3.46,4.71-3.46,4.71s3.46,1.44,3.46,4.71c0-3.27,3.46-4.71,3.46-4.71S285.26,578.29,285.26,575Z"/><path class="cls-3" d="M317.84,656c0,3.27-3.46,4.71-3.46,4.71s3.46,1.44,3.46,4.71c0-3.27,3.46-4.71,3.46-4.71S317.84,659.28,317.84,656Z"/><path class="cls-3" d="M294.67,855.83c0,3.27-3.46,4.71-3.46,4.71s3.46,1.43,3.46,4.71c0-3.28,3.47-4.71,3.47-4.71S294.67,859.1,294.67,855.83Z"/><path class="cls-3" d="M489.6,893.72c0,3.27-3.46,4.71-3.46,4.71s3.46,1.44,3.46,4.71c0-3.27,3.46-4.71,3.46-4.71S489.6,897,489.6,893.72Z"/><path class="cls-3" d="M730.74,910.79c0,3.28-3.47,4.71-3.47,4.71s3.47,1.44,3.47,4.71c0-3.27,3.46-4.71,3.46-4.71S730.74,914.07,730.74,910.79Z"/><path class="cls-3" d="M961.71,745.31c0,3.27-3.46,4.71-3.46,4.71s3.46,1.43,3.46,4.71c0-3.28,3.46-4.71,3.46-4.71S961.71,748.58,961.71,745.31Z"/><path class="cls-3" d="M1031,825.59c0,3.28-3.46,4.71-3.46,4.71s3.46,1.44,3.46,4.71c0-3.27,3.46-4.71,3.46-4.71S1031,828.87,1031,825.59Z"/><path class="cls-3" d="M1001.82,469.24c0,3.27-3.47,4.71-3.47,4.71s3.47,1.43,3.47,4.71c0-3.28,3.46-4.71,3.46-4.71S1001.82,472.51,1001.82,469.24Z"/><path class="cls-3" d="M862,382.49c0,3.27-3.46,4.71-3.46,4.71s3.46,1.43,3.46,4.71c0-3.28,3.46-4.71,3.46-4.71S862,385.76,862,382.49Z"/><path class="cls-3" d="M840.37,294.42c0,3.27-3.47,4.7-3.47,4.7s3.47,1.44,3.47,4.71c0-3.27,3.46-4.71,3.46-4.71S840.37,297.69,840.37,294.42Z"/><path class="cls-3" d="M768,378.53c0,3.27-3.46,4.7-3.46,4.7s3.46,1.44,3.46,4.71c0-3.27,3.47-4.71,3.47-4.71S768,381.8,768,378.53Z"/><path class="cls-3" d="M877.2,625.59c0,3.27-3.46,4.7-3.46,4.7s3.46,1.44,3.46,4.71c0-3.27,3.46-4.71,3.46-4.71S877.2,628.86,877.2,625.59Z"/><path class="cls-3" d="M809.54,647.93c0,3.27-3.46,4.71-3.46,4.71s3.46,1.43,3.46,4.71c0-3.28,3.46-4.71,3.46-4.71S809.54,651.2,809.54,647.93Z"/><path class="cls-3" d="M723.65,641.38c0,3.27-3.46,4.71-3.46,4.71s3.46,1.44,3.46,4.71c0-3.27,3.47-4.71,3.47-4.71S723.65,644.65,723.65,641.38Z"/><path class="cls-3" d="M777.8,456.31c0,3.27-3.46,4.71-3.46,4.71s3.46,1.43,3.46,4.7c0-3.27,3.46-4.7,3.46-4.7S777.8,459.58,777.8,456.31Z"/><path class="cls-3" d="M537.45,347c0,3.27-3.46,4.71-3.46,4.71s3.46,1.44,3.46,4.71c0-3.27,3.46-4.71,3.46-4.71S537.45,350.26,537.45,347Z"/><path class="cls-3" d="M525.11,393.62c0,3.28-3.46,4.71-3.46,4.71s3.46,1.44,3.46,4.71c0-3.27,3.46-4.71,3.46-4.71S525.11,396.9,525.11,393.62Z"/><path class="cls-3" d="M580.42,670.57c0,3.27-3.46,4.7-3.46,4.7s3.46,1.44,3.46,4.71c0-3.27,3.46-4.71,3.46-4.71S580.42,673.84,580.42,670.57Z"/><path class="cls-3" d="M622.14,649.66c0,3.28-3.46,4.71-3.46,4.71s3.46,1.44,3.46,4.71c0-3.27,3.46-4.71,3.46-4.71S622.14,652.94,622.14,649.66Z"/><path class="cls-3" d="M727.12,734.58c0,3.27-3.47,4.71-3.47,4.71s3.47,1.43,3.47,4.71c0-3.28,3.46-4.71,3.46-4.71S727.12,737.85,727.12,734.58Z"/><path class="cls-3" d="M736.61,710.71c0,3.27-3.46,4.71-3.46,4.71s3.46,1.44,3.46,4.71c0-3.27,3.46-4.71,3.46-4.71S736.61,714,736.61,710.71Z"/><path class="cls-3" d="M652.81,766.67c0,3.27-3.46,4.71-3.46,4.71s3.46,1.43,3.46,4.7c0-3.27,3.46-4.7,3.46-4.7S652.81,769.94,652.81,766.67Z"/><path class="cls-3" d="M493.19,677.94c0,3.27-3.46,4.7-3.46,4.7s3.46,1.44,3.46,4.71c0-3.27,3.46-4.71,3.46-4.71S493.19,681.21,493.19,677.94Z"/><path class="cls-3" d="M441.12,668.52c0,3.27-3.46,4.71-3.46,4.71s3.46,1.43,3.46,4.71c0-3.28,3.46-4.71,3.46-4.71S441.12,671.79,441.12,668.52Z"/><path class="cls-3" d="M405.94,645c0,3.28-3.46,4.71-3.46,4.71s3.46,1.44,3.46,4.71c0-3.27,3.46-4.71,3.46-4.71S405.94,648.23,405.94,645Z"/><path class="cls-3" d="M271.46,694.06c0,3.27-3.46,4.71-3.46,4.71s3.46,1.44,3.46,4.71c0-3.27,3.46-4.71,3.46-4.71S271.46,697.33,271.46,694.06Z"/><path class="cls-3" d="M317.84,771.86c0,3.27-3.46,4.71-3.46,4.71s3.46,1.43,3.46,4.71c0-3.28,3.46-4.71,3.46-4.71S317.84,775.13,317.84,771.86Z"/><path class="cls-3" d="M181.05,850.85c0,3.27-3.47,4.71-3.47,4.71s3.47,1.44,3.47,4.71c0-3.27,3.46-4.71,3.46-4.71S181.05,854.12,181.05,850.85Z"/><path class="cls-3" d="M283.27,959.2c0,3.27-3.46,4.71-3.46,4.71s3.46,1.44,3.46,4.71c0-3.27,3.47-4.71,3.47-4.71S283.27,962.47,283.27,959.2Z"/><path class="cls-3" d="M389.74,1064.77c0,3.27-3.47,4.71-3.47,4.71s3.47,1.43,3.47,4.7c0-3.27,3.46-4.7,3.46-4.7S389.74,1068,389.74,1064.77Z"/><path class="cls-3" d="M495,1059.88c0,3.27-3.46,4.71-3.46,4.71S495,1066,495,1069.3c0-3.27,3.46-4.71,3.46-4.71S495,1063.15,495,1059.88Z"/><path class="cls-3" d="M570.34,1050.93c0,3.28-3.46,4.71-3.46,4.71s3.46,1.44,3.46,4.71c0-3.27,3.46-4.71,3.46-4.71S570.34,1054.21,570.34,1050.93Z"/><path class="cls-3" d="M789.9,1034.5c0,3.27-3.46,4.7-3.46,4.7s3.46,1.44,3.46,4.71c0-3.27,3.46-4.71,3.46-4.71S789.9,1037.77,789.9,1034.5Z"/><path class="cls-3" d="M889.87,954.33c0,3.28-3.46,4.71-3.46,4.71s3.46,1.44,3.46,4.71c0-3.27,3.46-4.71,3.46-4.71S889.87,957.61,889.87,954.33Z"/><path class="cls-3" d="M912.83,926.35c0,3.27-3.46,4.7-3.46,4.7s3.46,1.44,3.46,4.71c0-3.27,3.46-4.71,3.46-4.71S912.83,929.62,912.83,926.35Z"/><path class="cls-3" d="M873.49,882.5c0,3.27-3.46,4.71-3.46,4.71s3.46,1.43,3.46,4.7c0-3.27,3.46-4.7,3.46-4.7S873.49,885.77,873.49,882.5Z"/><path class="cls-3" d="M346.28,939.63c0,3.28-3.46,4.71-3.46,4.71s3.46,1.44,3.46,4.71c0-3.27,3.46-4.71,3.46-4.71S346.28,942.91,346.28,939.63Z"/><path class="cls-3" d="M448.6,131.62c0,3.27-3.46,4.71-3.46,4.71s3.46,1.44,3.46,4.71c0-3.27,3.46-4.71,3.46-4.71S448.6,134.89,448.6,131.62Z"/><path class="cls-3" d="M727.22,188.51c0,3.28-3.46,4.71-3.46,4.71s3.46,1.44,3.46,4.71c0-3.27,3.46-4.71,3.46-4.71S727.22,191.79,727.22,188.51Z"/><path class="cls-3" d="M367.56,289.07c0,3.27-3.47,4.7-3.47,4.7s3.47,1.44,3.47,4.71c0-3.27,3.46-4.71,3.46-4.71S367.56,292.34,367.56,289.07Z"/><path class="cls-3" d="M306.23,323c0,3.27-3.47,4.71-3.47,4.71s3.47,1.43,3.47,4.7c0-3.27,3.46-4.7,3.46-4.7S306.23,326.26,306.23,323Z"/><path class="cls-3" d="M321.47,363.49c0,3.27-3.47,4.71-3.47,4.71s3.47,1.43,3.47,4.71c0-3.28,3.46-4.71,3.46-4.71S321.47,366.76,321.47,363.49Z"/><path class="cls-3" d="M367.2,431.72c0,3.27-3.46,4.71-3.46,4.71s3.46,1.43,3.46,4.71c0-3.28,3.46-4.71,3.46-4.71S367.2,435,367.2,431.72Z"/><path class="cls-3" d="M498.79,370.27c0,3.28-3.46,4.71-3.46,4.71s3.46,1.44,3.46,4.71c0-3.27,3.46-4.71,3.46-4.71S498.79,373.55,498.79,370.27Z"/><path class="cls-3" d="M259,893.72c0,3.27-3.46,4.71-3.46,4.71s3.46,1.44,3.46,4.71c0-3.27,3.46-4.71,3.46-4.71S259,897,259,893.72Z"/><line class="cls-4" x1="1149.05" y1="567.66" x2="1172.92" y2="566.28"/><line class="cls-4" x1="1146.73" y1="539.87" x2="1170.51" y2="537.29"/><line class="cls-4" x1="1141.97" y1="506.39" x2="1165.54" y2="502.34"/><line class="cls-4" x1="1136.56" y1="479.04" x2="1159.9" y2="473.8"/><line class="cls-4" x1="1128.14" y1="446.29" x2="1151.11" y2="439.62"/><line class="cls-4" x1="1119.69" y1="419.73" x2="1142.28" y2="411.89"/><line class="cls-4" x1="1107.72" y1="388.1" x2="1129.78" y2="378.88"/><line class="cls-4" x1="1096.34" y1="362.64" x2="1117.9" y2="352.31"/><line class="cls-4" x1="1080.71" y1="332.65" x2="1101.6" y2="321"/><line class="cls-4" x1="1066.51" y1="308.65" x2="1086.78" y2="295.97"/><line class="cls-4" x1="1047.67" y1="280.56" x2="1067.13" y2="266.66"/><line class="cls-4" x1="1030.89" y1="258.29" x2="1049.62" y2="243.42"/><line class="cls-4" x1="1009.12" y1="232.4" x2="1026.91" y2="216.41"/><line class="cls-4" x1="989.98" y1="212.12" x2="1006.94" y2="195.25"/><line class="cls-4" x1="965.35" y1="188.93" x2="981.24" y2="171.06"/><line class="cls-4" x1="944.04" y1="170.94" x2="959.02" y2="152.3"/><line class="cls-4" x1="917.01" y1="150.61" x2="930.82" y2="131.08"/><line class="cls-4" x1="893.85" y1="135.09" x2="906.65" y2="114.89"/><line class="cls-4" x1="864.78" y1="117.81" x2="876.31" y2="96.85"/><line class="cls-4" x1="840.03" y1="104.97" x2="850.48" y2="83.45"/><line class="cls-4" x1="809.14" y1="91.2" x2="818.24" y2="69.08"/><line class="cls-4" x1="783.09" y1="81.26" x2="791.05" y2="58.71"/><line class="cls-4" x1="750.85" y1="71.05" x2="757.4" y2="48.05"/><line class="cls-4" x1="723.85" y1="64.11" x2="729.22" y2="40.8"/><line class="cls-4" x1="690.69" y1="57.51" x2="694.6" y2="33.91"/><line class="cls-4" x1="663.08" y1="53.64" x2="665.79" y2="29.88"/><line class="cls-4" x1="629.37" y1="50.73" x2="630.63" y2="26.84"/><line class="cls-4" x1="599.96" y1="49.97" x2="600.03" y2="26.05"/><line class="cls-4" x1="567.66" y1="50.95" x2="566.28" y2="27.08"/><line class="cls-4" x1="539.87" y1="53.27" x2="537.29" y2="29.49"/><line class="cls-4" x1="506.39" y1="58.03" x2="502.34" y2="34.46"/><line class="cls-4" x1="479.04" y1="63.44" x2="473.8" y2="40.1"/><line class="cls-4" x1="446.29" y1="71.86" x2="439.62" y2="48.89"/><line class="cls-4" x1="419.73" y1="80.31" x2="411.89" y2="57.72"/><line class="cls-4" x1="388.1" y1="92.28" x2="378.88" y2="70.22"/><line class="cls-4" x1="362.64" y1="103.66" x2="352.31" y2="82.1"/><line class="cls-4" x1="332.65" y1="119.29" x2="321" y2="98.4"/><line class="cls-4" x1="308.65" y1="133.49" x2="295.97" y2="113.22"/><line class="cls-4" x1="280.56" y1="152.33" x2="266.66" y2="132.87"/><line class="cls-4" x1="258.29" y1="169.11" x2="243.42" y2="150.38"/><line class="cls-4" x1="232.4" y1="190.88" x2="216.41" y2="173.09"/><line class="cls-4" x1="212.12" y1="210.02" x2="195.25" y2="193.06"/><line class="cls-4" x1="188.93" y1="234.65" x2="171.06" y2="218.76"/><line class="cls-4" x1="170.94" y1="255.96" x2="152.3" y2="240.98"/><line class="cls-4" x1="150.61" y1="282.99" x2="131.08" y2="269.18"/><line class="cls-4" x1="135.09" y1="306.15" x2="114.89" y2="293.35"/><line class="cls-4" x1="117.8" y1="335.22" x2="96.85" y2="323.69"/><line class="cls-4" x1="104.97" y1="359.97" x2="83.45" y2="349.52"/><line class="cls-4" x1="91.2" y1="390.86" x2="69.08" y2="381.76"/><line class="cls-4" x1="81.26" y1="416.91" x2="58.71" y2="408.95"/><line class="cls-4" x1="71.05" y1="449.15" x2="48.05" y2="442.6"/><line class="cls-4" x1="64.11" y1="476.14" x2="40.8" y2="470.78"/><line class="cls-4" x1="57.51" y1="509.31" x2="33.91" y2="505.4"/><line class="cls-4" x1="53.64" y1="536.92" x2="29.88" y2="534.21"/><line class="cls-4" x1="50.73" y1="570.63" x2="26.85" y2="569.37"/><line class="cls-4" x1="49.97" y1="599.99" x2="26.05" y2="599.92"/><line class="cls-4" x1="50.95" y1="632.34" x2="27.08" y2="633.72"/><line class="cls-4" x1="53.27" y1="660.13" x2="29.49" y2="662.71"/><line class="cls-4" x1="58.03" y1="693.61" x2="34.46" y2="697.66"/><line class="cls-4" x1="63.44" y1="720.96" x2="40.1" y2="726.2"/><line class="cls-4" x1="71.86" y1="753.71" x2="48.89" y2="760.38"/><line class="cls-4" x1="80.31" y1="780.27" x2="57.72" y2="788.11"/><line class="cls-4" x1="92.28" y1="811.9" x2="70.22" y2="821.12"/><line class="cls-4" x1="103.66" y1="837.36" x2="82.1" y2="847.69"/><line class="cls-4" x1="119.29" y1="867.35" x2="98.4" y2="879"/><line class="cls-4" x1="133.49" y1="891.35" x2="113.22" y2="904.03"/><line class="cls-4" x1="152.33" y1="919.44" x2="132.87" y2="933.34"/><line class="cls-4" x1="169.11" y1="941.71" x2="150.38" y2="956.58"/><line class="cls-4" x1="190.88" y1="967.6" x2="173.09" y2="983.59"/><line class="cls-4" x1="210.02" y1="987.88" x2="193.06" y2="1004.75"/><line class="cls-4" x1="234.65" y1="1011.07" x2="218.75" y2="1028.94"/><line class="cls-4" x1="255.96" y1="1029.06" x2="240.98" y2="1047.7"/><line class="cls-4" x1="282.99" y1="1049.39" x2="269.18" y2="1068.92"/><line class="cls-4" x1="306.15" y1="1064.91" x2="293.35" y2="1085.11"/><line class="cls-4" x1="335.22" y1="1082.2" x2="323.69" y2="1103.15"/><line class="cls-4" x1="359.97" y1="1095.04" x2="349.52" y2="1116.55"/><line class="cls-4" x1="390.86" y1="1108.8" x2="381.76" y2="1130.92"/><line class="cls-4" x1="416.91" y1="1118.74" x2="408.95" y2="1141.29"/><line class="cls-4" x1="449.15" y1="1128.95" x2="442.6" y2="1151.95"/><line class="cls-4" x1="476.14" y1="1135.89" x2="470.78" y2="1159.2"/><line class="cls-4" x1="509.31" y1="1142.49" x2="505.4" y2="1166.09"/><line class="cls-4" x1="536.92" y1="1146.36" x2="534.21" y2="1170.12"/><line class="cls-4" x1="570.63" y1="1149.27" x2="569.37" y2="1173.16"/><line class="cls-4" x1="599.75" y1="1150.03" x2="599.69" y2="1173.95"/><line class="cls-4" x1="632.34" y1="1149.05" x2="633.72" y2="1172.92"/><line class="cls-4" x1="660.13" y1="1146.73" x2="662.71" y2="1170.51"/><line class="cls-4" x1="693.61" y1="1141.97" x2="697.66" y2="1165.54"/><line class="cls-4" x1="720.96" y1="1136.56" x2="726.2" y2="1159.9"/><line class="cls-4" x1="753.71" y1="1128.14" x2="760.38" y2="1151.11"/><line class="cls-4" x1="780.27" y1="1119.69" x2="788.11" y2="1142.28"/><line class="cls-4" x1="811.9" y1="1107.72" x2="821.12" y2="1129.78"/><line class="cls-4" x1="837.36" y1="1096.34" x2="847.69" y2="1117.9"/><line class="cls-4" x1="867.35" y1="1080.71" x2="879" y2="1101.6"/><line class="cls-4" x1="891.35" y1="1066.51" x2="904.03" y2="1086.78"/><line class="cls-4" x1="919.44" y1="1047.67" x2="933.34" y2="1067.13"/><line class="cls-4" x1="941.71" y1="1030.89" x2="956.58" y2="1049.62"/><line class="cls-4" x1="967.6" y1="1009.12" x2="983.59" y2="1026.91"/><line class="cls-4" x1="987.88" y1="989.98" x2="1004.75" y2="1006.94"/><line class="cls-4" x1="1011.07" y1="965.35" x2="1028.94" y2="981.25"/><line class="cls-4" x1="1029.06" y1="944.04" x2="1047.7" y2="959.02"/><line class="cls-4" x1="1049.39" y1="917.01" x2="1068.92" y2="930.82"/><line class="cls-4" x1="1064.91" y1="893.85" x2="1085.11" y2="906.65"/><line class="cls-4" x1="1082.19" y1="864.78" x2="1103.15" y2="876.31"/><line class="cls-4" x1="1095.03" y1="840.03" x2="1116.55" y2="850.48"/><line class="cls-4" x1="1108.8" y1="809.14" x2="1130.92" y2="818.24"/><line class="cls-4" x1="1118.74" y1="783.09" x2="1141.29" y2="791.05"/><line class="cls-4" x1="1128.95" y1="750.85" x2="1151.95" y2="757.4"/><line class="cls-4" x1="1135.89" y1="723.86" x2="1159.2" y2="729.22"/><line class="cls-4" x1="1142.49" y1="690.69" x2="1166.09" y2="694.6"/><line class="cls-4" x1="1146.36" y1="663.08" x2="1170.12" y2="665.79"/><line class="cls-4" x1="1149.27" y1="629.37" x2="1173.15" y2="630.63"/><line class="cls-4" x1="1150.03" y1="599.96" x2="1173.95" y2="600.02"/><line class="cls-4" x1="1133.6" y1="597.15" x2="1150.13" y2="597.06"/><line class="cls-4" x1="1133.66" y1="592.14" x2="1150.19" y2="591.9"/><line class="cls-4" x1="1133.37" y1="587.91" x2="1149.89" y2="587.54"/><line class="cls-4" x1="1133.43" y1="582.9" x2="1149.95" y2="582.38"/><line class="cls-4" x1="1133.14" y1="578.67" x2="1149.65" y2="578.02"/><line class="cls-4" x1="1133.2" y1="573.66" x2="1149.71" y2="572.86"/><line class="cls-4" x1="1132.75" y1="569.44" x2="1149.25" y2="568.51"/><line class="cls-4" x1="1132.55" y1="564.44" x2="1149.04" y2="563.35"/><line class="cls-4" x1="1132.04" y1="560.23" x2="1148.53" y2="559.01"/><line class="cls-4" x1="1131.85" y1="555.22" x2="1148.32" y2="553.86"/><line class="cls-4" x1="1131.34" y1="551.02" x2="1147.8" y2="549.52"/><line class="cls-4" x1="1131.15" y1="546.01" x2="1147.6" y2="544.36"/><line class="cls-4" x1="1130.46" y1="541.82" x2="1146.89" y2="540.04"/><line class="cls-4" x1="1130.01" y1="536.84" x2="1146.43" y2="534.9"/><line class="cls-4" x1="1129.29" y1="532.66" x2="1145.69" y2="530.59"/><line class="cls-4" x1="1128.85" y1="527.67" x2="1145.23" y2="525.45"/><line class="cls-4" x1="1128.13" y1="523.49" x2="1144.49" y2="521.15"/><line class="cls-4" x1="1127.67" y1="518.5" x2="1144.01" y2="516"/><line class="cls-4" x1="1126.74" y1="514.36" x2="1143.06" y2="511.73"/><line class="cls-4" x1="1126.05" y1="509.41" x2="1142.34" y2="506.62"/><line class="cls-4" x1="1125.12" y1="505.27" x2="1141.39" y2="502.35"/><line class="cls-4" x1="1124.42" y1="500.31" x2="1140.66" y2="497.24"/><line class="cls-4" x1="1123.5" y1="496.18" x2="1139.71" y2="492.98"/><line class="cls-4" x1="1122.74" y1="491.23" x2="1138.92" y2="487.87"/><line class="cls-4" x1="1121.6" y1="487.14" x2="1137.76" y2="483.66"/><line class="cls-4" x1="1120.66" y1="482.22" x2="1136.78" y2="478.59"/><line class="cls-4" x1="1119.53" y1="478.14" x2="1135.62" y2="474.38"/><line class="cls-4" x1="1118.58" y1="473.22" x2="1134.64" y2="469.31"/><line class="cls-4" x1="1117.45" y1="469.14" x2="1133.48" y2="465.1"/><line class="cls-4" x1="1116.39" y1="464.24" x2="1132.37" y2="460.05"/><line class="cls-4" x1="1115.05" y1="460.22" x2="1131" y2="455.9"/><line class="cls-4" x1="1113.86" y1="455.36" x2="1129.77" y2="450.89"/><line class="cls-4" x1="1112.53" y1="451.33" x2="1128.4" y2="446.74"/><line class="cls-4" x1="1111.34" y1="446.47" x2="1127.17" y2="441.72"/><line class="cls-4" x1="1110" y1="442.45" x2="1125.8" y2="437.57"/><line class="cls-4" x1="1108.63" y1="437.63" x2="1124.38" y2="432.61"/><line class="cls-4" x1="1107.1" y1="433.68" x2="1122.8" y2="428.53"/><line class="cls-4" x1="1105.67" y1="428.88" x2="1121.32" y2="423.58"/><line class="cls-4" x1="1104.14" y1="424.93" x2="1119.75" y2="419.51"/><line class="cls-4" x1="1102.71" y1="420.13" x2="1118.27" y2="414.56"/><line class="cls-4" x1="1101.16" y1="416.19" x2="1116.68" y2="410.49"/><line class="cls-4" x1="1099.5" y1="411.47" x2="1114.96" y2="405.63"/><line class="cls-4" x1="1097.77" y1="407.59" x2="1113.19" y2="401.63"/><line class="cls-4" x1="1096.11" y1="402.87" x2="1111.46" y2="396.76"/><line class="cls-4" x1="1094.38" y1="399" x2="1109.69" y2="392.77"/><line class="cls-4" x1="1092.72" y1="394.27" x2="1107.97" y2="387.9"/><line class="cls-4" x1="1090.9" y1="390.45" x2="1106.1" y2="383.95"/><line class="cls-4" x1="1089.01" y1="385.81" x2="1104.15" y2="379.17"/><line class="cls-4" x1="1087.1" y1="382.03" x2="1102.18" y2="375.27"/><line class="cls-4" x1="1085.2" y1="377.39" x2="1100.22" y2="370.49"/><line class="cls-4" x1="1083.29" y1="373.61" x2="1098.25" y2="366.59"/><line class="cls-4" x1="1081.4" y1="368.97" x2="1096.29" y2="361.81"/><line class="cls-4" x1="1079.32" y1="365.27" x2="1094.16" y2="357.99"/><line class="cls-4" x1="1077.2" y1="360.74" x2="1091.97" y2="353.32"/><line class="cls-4" x1="1075.11" y1="357.05" x2="1089.82" y2="349.52"/><line class="cls-4" x1="1072.99" y1="352.51" x2="1087.63" y2="344.84"/><line class="cls-4" x1="1070.9" y1="348.83" x2="1085.47" y2="341.04"/><line class="cls-4" x1="1068.72" y1="344.32" x2="1083.22" y2="336.39"/><line class="cls-4" x1="1066.45" y1="340.74" x2="1080.88" y2="332.7"/><line class="cls-4" x1="1064.11" y1="336.31" x2="1078.47" y2="328.13"/><line class="cls-4" x1="1061.84" y1="332.73" x2="1076.14" y2="324.44"/><line class="cls-4" x1="1059.51" y1="328.3" x2="1073.72" y2="319.87"/><line class="cls-4" x1="1057.24" y1="324.72" x2="1071.39" y2="316.18"/><line class="cls-4" x1="1054.76" y1="320.37" x2="1068.83" y2="311.7"/><line class="cls-4" x1="1052.32" y1="316.9" x2="1066.32" y2="308.12"/><line class="cls-4" x1="1049.77" y1="312.59" x2="1063.69" y2="303.68"/><line class="cls-4" x1="1047.33" y1="309.13" x2="1061.18" y2="300.1"/><line class="cls-4" x1="1044.79" y1="304.81" x2="1058.55" y2="295.66"/><line class="cls-4" x1="1042.33" y1="301.36" x2="1056.02" y2="292.1"/><line class="cls-4" x1="1039.58" y1="297.17" x2="1053.19" y2="287.78"/><line class="cls-4" x1="1036.98" y1="293.83" x2="1050.5" y2="284.33"/><line class="cls-4" x1="1034.23" y1="289.64" x2="1047.67" y2="280.02"/><line class="cls-4" x1="1031.62" y1="286.3" x2="1044.99" y2="276.57"/><line class="cls-4" x1="1028.87" y1="282.11" x2="1042.14" y2="272.26"/><line class="cls-4" x1="1026.18" y1="278.84" x2="1039.37" y2="268.88"/><line class="cls-4" x1="1023.23" y1="274.79" x2="1036.33" y2="264.71"/><line class="cls-4" x1="1020.47" y1="271.58" x2="1033.49" y2="261.39"/><line class="cls-4" x1="1017.52" y1="267.52" x2="1030.44" y2="257.22"/><line class="cls-4" x1="1014.76" y1="264.31" x2="1027.6" y2="253.9"/><line class="cls-4" x1="1011.8" y1="260.26" x2="1024.55" y2="249.74"/><line class="cls-4" x1="1008.89" y1="257.18" x2="1021.55" y2="246.56"/><line class="cls-4" x1="1005.75" y1="253.28" x2="1018.31" y2="242.54"/><line class="cls-4" x1="1002.84" y1="250.2" x2="1015.31" y2="239.36"/><line class="cls-4" x1="999.7" y1="246.29" x2="1012.07" y2="235.34"/><line class="cls-4" x1="996.79" y1="243.21" x2="1009.08" y2="232.16"/><line class="cls-4" x1="993.57" y1="239.38" x2="1005.75" y2="228.21"/><line class="cls-4" x1="990.51" y1="236.44" x2="1002.6" y2="225.18"/><line class="cls-4" x1="987.19" y1="232.69" x2="999.18" y2="221.32"/><line class="cls-4" x1="984.13" y1="229.76" x2="996.03" y2="218.28"/><line class="cls-4" x1="980.81" y1="226" x2="992.6" y2="214.42"/><line class="cls-4" x1="977.76" y1="223.07" x2="989.46" y2="211.39"/><line class="cls-4" x1="974.29" y1="219.46" x2="985.88" y2="207.68"/><line class="cls-4" x1="971.09" y1="216.67" x2="982.59" y2="204.8"/><line class="cls-4" x1="967.6" y1="213.09" x2="978.98" y2="201.11"/><line class="cls-4" x1="964.4" y1="210.3" x2="975.69" y2="198.23"/><line class="cls-4" x1="960.91" y1="206.71" x2="972.08" y2="194.53"/><line class="cls-4" x1="957.67" y1="203.98" x2="968.75" y2="191.71"/><line class="cls-4" x1="954.01" y1="200.56" x2="964.97" y2="188.2"/><line class="cls-4" x1="950.68" y1="197.93" x2="961.55" y2="185.48"/><line class="cls-4" x1="947.02" y1="194.51" x2="957.77" y2="181.96"/><line class="cls-4" x1="943.7" y1="191.88" x2="954.35" y2="179.24"/><line class="cls-4" x1="940.04" y1="188.46" x2="950.57" y2="175.72"/><line class="cls-4" x1="936.61" y1="185.96" x2="947.04" y2="173.14"/><line class="cls-4" x1="932.79" y1="182.73" x2="943.1" y2="169.81"/><line class="cls-4" x1="929.34" y1="180.25" x2="939.55" y2="167.26"/><line class="cls-4" x1="925.52" y1="177.02" x2="935.61" y2="163.92"/><line class="cls-4" x1="922.08" y1="174.55" x2="932.06" y2="161.38"/><line class="cls-4" x1="918.21" y1="171.36" x2="928.08" y2="158.1"/><line class="cls-4" x1="914.65" y1="169.06" x2="924.41" y2="155.71"/><line class="cls-4" x1="910.68" y1="166.01" x2="920.31" y2="152.57"/><line class="cls-4" x1="907.12" y1="163.7" x2="916.65" y2="150.2"/><line class="cls-4" x1="903.15" y1="160.65" x2="912.55" y2="147.05"/><line class="cls-4" x1="899.59" y1="158.35" x2="908.88" y2="144.68"/><line class="cls-4" x1="895.52" y1="155.43" x2="904.69" y2="141.68"/><line class="cls-4" x1="891.86" y1="153.3" x2="900.91" y2="139.47"/><line class="cls-4" x1="887.74" y1="150.45" x2="896.67" y2="136.53"/><line class="cls-4" x1="884.08" y1="148.32" x2="892.89" y2="134.33"/><line class="cls-4" x1="879.96" y1="145.46" x2="888.64" y2="131.39"/><line class="cls-4" x1="876.29" y1="143.35" x2="884.86" y2="129.22"/><line class="cls-4" x1="872.05" y1="140.7" x2="880.48" y2="126.48"/><line class="cls-4" x1="868.28" y1="138.75" x2="876.6" y2="124.47"/><line class="cls-4" x1="864.03" y1="136.09" x2="872.22" y2="121.73"/><line class="cls-4" x1="860.27" y1="134.14" x2="868.35" y2="119.72"/><line class="cls-4" x1="856.02" y1="131.48" x2="863.96" y2="116.99"/><line class="cls-4" x1="852.21" y1="129.64" x2="860.03" y2="115.08"/><line class="cls-4" x1="847.84" y1="127.19" x2="855.53" y2="112.56"/><line class="cls-4" x1="843.99" y1="125.43" x2="851.55" y2="110.74"/><line class="cls-4" x1="839.61" y1="122.98" x2="847.04" y2="108.22"/><line class="cls-4" x1="835.76" y1="121.22" x2="843.08" y2="106.39"/><line class="cls-4" x1="831.39" y1="118.77" x2="838.56" y2="103.88"/><line class="cls-4" x1="827.45" y1="117.19" x2="834.51" y2="102.25"/><line class="cls-4" x1="822.97" y1="114.96" x2="829.88" y2="99.95"/><line class="cls-4" x1="819.03" y1="113.39" x2="825.83" y2="98.32"/><line class="cls-4" x1="814.55" y1="111.16" x2="821.2" y2="96.03"/><line class="cls-4" x1="810.62" y1="109.58" x2="817.15" y2="94.4"/><line class="cls-4" x1="806.09" y1="107.43" x2="812.48" y2="92.19"/><line class="cls-4" x1="802.08" y1="106.05" x2="808.35" y2="90.76"/><line class="cls-4" x1="797.5" y1="104.04" x2="803.62" y2="88.69"/><line class="cls-4" x1="793.49" y1="102.66" x2="799.49" y2="87.26"/><line class="cls-4" x1="788.9" y1="100.65" x2="794.75" y2="85.2"/><line class="cls-4" x1="784.9" y1="99.27" x2="790.62" y2="83.77"/><line class="cls-4" x1="780.25" y1="97.42" x2="785.83" y2="81.87"/><line class="cls-4" x1="776.17" y1="96.24" x2="781.63" y2="80.64"/><line class="cls-4" x1="771.49" y1="94.46" x2="776.8" y2="78.81"/><line class="cls-4" x1="767.42" y1="93.28" x2="772.61" y2="77.59"/><line class="cls-4" x1="762.74" y1="91.5" x2="767.77" y2="75.76"/><line class="cls-4" x1="758.67" y1="90.32" x2="763.58" y2="74.54"/><line class="cls-4" x1="753.91" y1="88.78" x2="758.67" y2="72.95"/><line class="cls-4" x1="749.79" y1="87.8" x2="754.42" y2="71.93"/><line class="cls-4" x1="745.02" y1="86.25" x2="749.51" y2="70.35"/><line class="cls-4" x1="740.9" y1="85.28" x2="745.26" y2="69.33"/><line class="cls-4" x1="736.14" y1="83.73" x2="740.34" y2="67.74"/><line class="cls-4" x1="732" y1="82.82" x2="736.07" y2="66.8"/><line class="cls-4" x1="727.17" y1="81.51" x2="731.09" y2="65.46"/><line class="cls-4" x1="723" y1="80.74" x2="726.79" y2="64.66"/><line class="cls-4" x1="718.16" y1="79.44" x2="721.81" y2="63.32"/><line class="cls-4" x1="714" y1="78.67" x2="717.51" y2="62.52"/><line class="cls-4" x1="709.16" y1="77.36" x2="712.52" y2="61.18"/><line class="cls-4" x1="704.97" y1="76.72" x2="708.2" y2="60.51"/><line class="cls-4" x1="700.08" y1="75.65" x2="703.16" y2="59.42"/><line class="cls-4" x1="695.88" y1="75.09" x2="698.83" y2="58.83"/><line class="cls-4" x1="690.98" y1="74.03" x2="693.78" y2="57.74"/><line class="cls-4" x1="686.78" y1="73.47" x2="689.45" y2="57.16"/><line class="cls-4" x1="681.88" y1="72.4" x2="684.4" y2="56.07"/><line class="cls-4" x1="677.66" y1="72.02" x2="680.05" y2="55.67"/><line class="cls-4" x1="672.72" y1="71.21" x2="674.95" y2="54.83"/><line class="cls-4" x1="668.5" y1="70.86" x2="670.6" y2="54.47"/><line class="cls-4" x1="663.55" y1="70.05" x2="665.5" y2="53.63"/><line class="cls-4" x1="659.33" y1="69.7" x2="661.15" y2="53.27"/><line class="cls-4" x1="654.38" y1="68.89" x2="656.05" y2="52.44"/><line class="cls-4" x1="650.14" y1="68.75" x2="651.68" y2="52.3"/><line class="cls-4" x1="645.17" y1="68.19" x2="646.55" y2="51.72"/><line class="cls-4" x1="640.93" y1="68.05" x2="642.18" y2="51.57"/><line class="cls-4" x1="635.95" y1="67.49" x2="637.05" y2="51"/><line class="cls-4" x1="631.72" y1="67.35" x2="632.69" y2="50.85"/><line class="cls-4" x1="626.73" y1="66.82" x2="627.55" y2="50.31"/><line class="cls-4" x1="622.49" y1="66.9" x2="623.18" y2="50.39"/><line class="cls-4" x1="617.49" y1="66.59" x2="618.03" y2="50.07"/><line class="cls-4" x1="613.25" y1="66.67" x2="613.66" y2="50.15"/><line class="cls-4" x1="608.25" y1="66.36" x2="608.51" y2="49.83"/><line class="cls-4" x1="604.02" y1="66.43" x2="604.14" y2="49.91"/><line class="cls-4" x1="600.04" y1="66.17" x2="600.01" y2="49.64"/><line class="cls-4" x1="594.78" y1="66.46" x2="594.62" y2="49.94"/><line class="cls-4" x1="589.77" y1="66.41" x2="589.46" y2="49.88"/><line class="cls-4" x1="585.54" y1="66.7" x2="585.1" y2="50.18"/><line class="cls-4" x1="580.53" y1="66.64" x2="579.94" y2="50.12"/><line class="cls-4" x1="576.3" y1="66.93" x2="575.58" y2="50.42"/><line class="cls-4" x1="571.29" y1="66.93" x2="570.42" y2="50.43"/><line class="cls-4" x1="567.08" y1="67.44" x2="566.08" y2="50.94"/><line class="cls-4" x1="562.08" y1="67.64" x2="560.92" y2="51.15"/><line class="cls-4" x1="557.87" y1="68.14" x2="556.58" y2="51.66"/><line class="cls-4" x1="552.86" y1="68.34" x2="551.42" y2="51.87"/><line class="cls-4" x1="548.66" y1="68.84" x2="547.09" y2="52.39"/><line class="cls-4" x1="543.65" y1="69.12" x2="541.93" y2="52.68"/><line class="cls-4" x1="539.47" y1="69.84" x2="537.62" y2="53.42"/><line class="cls-4" x1="534.49" y1="70.29" x2="532.48" y2="53.88"/><line class="cls-4" x1="530.31" y1="71.01" x2="528.17" y2="54.62"/><line class="cls-4" x1="525.32" y1="71.45" x2="523.03" y2="55.09"/><line class="cls-4" x1="521.14" y1="72.17" x2="518.72" y2="55.82"/><line class="cls-4" x1="516.17" y1="72.74" x2="513.6" y2="56.42"/><line class="cls-4" x1="512.03" y1="73.67" x2="509.33" y2="57.37"/><line class="cls-4" x1="507.07" y1="74.37" x2="504.22" y2="58.09"/><line class="cls-4" x1="502.94" y1="75.3" x2="499.95" y2="59.04"/><line class="cls-4" x1="497.98" y1="75.99" x2="494.84" y2="59.77"/><line class="cls-4" x1="493.84" y1="76.92" x2="490.58" y2="60.72"/><line class="cls-4" x1="488.92" y1="77.79" x2="485.49" y2="61.62"/><line class="cls-4" x1="484.83" y1="78.93" x2="481.28" y2="62.78"/><line class="cls-4" x1="479.91" y1="79.87" x2="476.21" y2="63.76"/><line class="cls-4" x1="475.83" y1="81" x2="472" y2="64.93"/><line class="cls-4" x1="470.91" y1="81.95" x2="466.92" y2="65.91"/><line class="cls-4" x1="466.83" y1="83.08" x2="462.72" y2="67.07"/><line class="cls-4" x1="461.96" y1="84.26" x2="457.7" y2="68.29"/><line class="cls-4" x1="457.94" y1="85.59" x2="453.55" y2="69.66"/><line class="cls-4" x1="453.07" y1="86.78" x2="448.53" y2="70.89"/><line class="cls-4" x1="449.05" y1="88.11" x2="444.39" y2="72.26"/><line class="cls-4" x1="444.19" y1="89.3" x2="439.37" y2="73.49"/><line class="cls-4" x1="440.18" y1="90.69" x2="435.24" y2="74.92"/><line class="cls-4" x1="435.39" y1="92.12" x2="430.3" y2="76.39"/><line class="cls-4" x1="431.43" y1="93.65" x2="426.22" y2="77.97"/><line class="cls-4" x1="426.63" y1="95.08" x2="421.27" y2="79.45"/><line class="cls-4" x1="422.68" y1="96.61" x2="417.19" y2="81.02"/><line class="cls-4" x1="417.88" y1="98.04" x2="412.24" y2="82.5"/><line class="cls-4" x1="413.98" y1="99.7" x2="408.22" y2="84.2"/><line class="cls-4" x1="409.26" y1="101.36" x2="403.35" y2="85.92"/><line class="cls-4" x1="405.39" y1="103.09" x2="399.36" y2="87.7"/><line class="cls-4" x1="400.66" y1="104.75" x2="394.49" y2="89.42"/><line class="cls-4" x1="396.79" y1="106.47" x2="390.5" y2="91.19"/><line class="cls-4" x1="392.07" y1="108.14" x2="385.63" y2="92.92"/><line class="cls-4" x1="388.28" y1="110.06" x2="381.72" y2="94.89"/><line class="cls-4" x1="383.65" y1="111.95" x2="376.94" y2="96.84"/><line class="cls-4" x1="379.87" y1="113.86" x2="373.04" y2="98.81"/><line class="cls-4" x1="375.23" y1="115.76" x2="368.26" y2="100.77"/><line class="cls-4" x1="371.45" y1="117.67" x2="364.36" y2="102.74"/><line class="cls-4" x1="366.85" y1="119.64" x2="359.62" y2="104.78"/><line class="cls-4" x1="363.16" y1="121.74" x2="355.81" y2="106.94"/><line class="cls-4" x1="358.62" y1="123.86" x2="351.14" y2="109.12"/><line class="cls-4" x1="354.94" y1="125.95" x2="347.34" y2="111.28"/><line class="cls-4" x1="350.4" y1="128.07" x2="342.66" y2="113.47"/><line class="cls-4" x1="346.72" y1="130.16" x2="338.86" y2="115.62"/><line class="cls-4" x1="342.26" y1="132.44" x2="334.27" y2="117.97"/><line class="cls-4" x1="338.68" y1="134.72" x2="330.57" y2="120.31"/><line class="cls-4" x1="334.25" y1="137.05" x2="326.01" y2="122.72"/><line class="cls-4" x1="330.67" y1="139.32" x2="322.31" y2="125.06"/><line class="cls-4" x1="326.24" y1="141.66" x2="317.75" y2="127.47"/><line class="cls-4" x1="322.68" y1="143.95" x2="314.08" y2="129.84"/><line class="cls-4" x1="318.37" y1="146.5" x2="309.63" y2="132.46"/><line class="cls-4" x1="314.9" y1="148.94" x2="306.06" y2="134.98"/><line class="cls-4" x1="310.59" y1="151.48" x2="301.61" y2="137.6"/><line class="cls-4" x1="307.12" y1="153.92" x2="298.04" y2="140.12"/><line class="cls-4" x1="302.81" y1="156.47" x2="293.59" y2="142.75"/><line class="cls-4" x1="299.42" y1="159.02" x2="290.1" y2="145.37"/><line class="cls-4" x1="295.23" y1="161.76" x2="285.78" y2="148.2"/><line class="cls-4" x1="291.89" y1="164.37" x2="282.33" y2="150.88"/><line class="cls-4" x1="287.7" y1="167.12" x2="278.02" y2="153.72"/><line class="cls-4" x1="284.36" y1="169.72" x2="274.57" y2="156.4"/><line class="cls-4" x1="280.18" y1="172.49" x2="270.27" y2="159.27"/><line class="cls-4" x1="276.96" y1="175.26" x2="266.95" y2="162.11"/><line class="cls-4" x1="272.92" y1="178.21" x2="262.78" y2="165.15"/><line class="cls-4" x1="269.7" y1="180.97" x2="259.46" y2="167.99"/><line class="cls-4" x1="265.65" y1="183.92" x2="255.29" y2="171.04"/><line class="cls-4" x1="262.43" y1="186.68" x2="251.97" y2="173.88"/><line class="cls-4" x1="258.46" y1="189.72" x2="247.88" y2="177.02"/><line class="cls-4" x1="255.38" y1="192.63" x2="244.7" y2="180.02"/><line class="cls-4" x1="251.47" y1="195.77" x2="240.68" y2="183.26"/><line class="cls-4" x1="248.39" y1="198.68" x2="237.5" y2="186.26"/><line class="cls-4" x1="244.49" y1="201.82" x2="233.48" y2="189.5"/><line class="cls-4" x1="241.41" y1="204.73" x2="230.3" y2="192.49"/><line class="cls-4" x1="237.65" y1="208.04" x2="226.43" y2="195.9"/><line class="cls-4" x1="234.71" y1="211.09" x2="223.39" y2="199.05"/><line class="cls-4" x1="230.96" y1="214.41" x2="219.53" y2="202.48"/><line class="cls-4" x1="228.02" y1="217.47" x2="216.5" y2="205.62"/><line class="cls-4" x1="224.27" y1="220.79" x2="212.64" y2="209.05"/><line class="cls-4" x1="221.4" y1="223.9" x2="209.67" y2="212.25"/><line class="cls-4" x1="217.81" y1="227.4" x2="205.98" y2="215.86"/><line class="cls-4" x1="215.02" y1="230.59" x2="203.1" y2="219.15"/><line class="cls-4" x1="211.43" y1="234.09" x2="199.4" y2="222.75"/><line class="cls-4" x1="208.64" y1="237.28" x2="196.53" y2="226.04"/><line class="cls-4" x1="205.05" y1="240.77" x2="192.83" y2="229.65"/><line class="cls-4" x1="202.4" y1="244.09" x2="190.09" y2="233.06"/><line class="cls-4" x1="198.99" y1="247.75" x2="186.58" y2="236.84"/><line class="cls-4" x1="196.36" y1="251.07" x2="183.86" y2="240.26"/><line class="cls-4" x1="192.94" y1="254.73" x2="180.34" y2="244.04"/><line class="cls-4" x1="190.31" y1="258.05" x2="177.62" y2="247.46"/><line class="cls-4" x1="186.95" y1="261.77" x2="174.17" y2="251.29"/><line class="cls-4" x1="184.48" y1="265.22" x2="171.61" y2="254.84"/><line class="cls-4" x1="181.24" y1="269.04" x2="168.28" y2="258.78"/><line class="cls-4" x1="178.77" y1="272.48" x2="165.73" y2="262.33"/><line class="cls-4" x1="175.53" y1="276.31" x2="162.39" y2="266.27"/><line class="cls-4" x1="173.06" y1="279.75" x2="159.84" y2="269.82"/><line class="cls-4" x1="169.96" y1="283.68" x2="156.66" y2="273.87"/><line class="cls-4" x1="167.66" y1="287.24" x2="154.28" y2="277.54"/><line class="cls-4" x1="164.61" y1="291.21" x2="151.13" y2="281.64"/><line class="cls-4" x1="162.3" y1="294.77" x2="148.76" y2="285.3"/><line class="cls-4" x1="159.25" y1="298.74" x2="145.61" y2="289.4"/><line class="cls-4" x1="156.98" y1="302.32" x2="143.27" y2="293.09"/><line class="cls-4" x1="154.13" y1="306.43" x2="140.33" y2="297.33"/><line class="cls-4" x1="152" y1="310.1" x2="138.13" y2="301.1"/><line class="cls-4" x1="149.14" y1="314.21" x2="135.19" y2="305.35"/><line class="cls-4" x1="147.01" y1="317.88" x2="132.99" y2="309.12"/><line class="cls-4" x1="144.15" y1="321.99" x2="130.05" y2="313.37"/><line class="cls-4" x1="142.14" y1="325.72" x2="127.97" y2="317.21"/><line class="cls-4" x1="139.49" y1="329.97" x2="125.24" y2="321.59"/><line class="cls-4" x1="137.54" y1="333.73" x2="123.22" y2="325.47"/><line class="cls-4" x1="134.88" y1="337.98" x2="120.49" y2="329.85"/><line class="cls-4" x1="132.93" y1="341.74" x2="118.47" y2="333.73"/><line class="cls-4" x1="130.29" y1="346" x2="115.76" y2="338.12"/><line class="cls-4" x1="128.53" y1="349.86" x2="113.93" y2="342.1"/><line class="cls-4" x1="126.08" y1="354.23" x2="111.42" y2="346.6"/><line class="cls-4" x1="124.32" y1="358.08" x2="109.59" y2="350.57"/><line class="cls-4" x1="121.87" y1="362.45" x2="107.07" y2="355.09"/><line class="cls-4" x1="120.1" y1="366.3" x2="105.25" y2="359.05"/><line class="cls-4" x1="117.76" y1="370.73" x2="102.84" y2="363.62"/><line class="cls-4" x1="116.18" y1="374.66" x2="101.21" y2="367.67"/><line class="cls-4" x1="113.95" y1="379.15" x2="98.91" y2="372.3"/><line class="cls-4" x1="112.38" y1="383.08" x2="97.28" y2="376.35"/><line class="cls-4" x1="110.15" y1="387.57" x2="94.99" y2="380.98"/><line class="cls-4" x1="108.57" y1="391.5" x2="93.36" y2="385.03"/><line class="cls-4" x1="106.53" y1="396.07" x2="91.25" y2="389.75"/><line class="cls-4" x1="105.14" y1="400.07" x2="89.82" y2="393.88"/><line class="cls-4" x1="103.14" y1="404.66" x2="87.76" y2="398.61"/><line class="cls-4" x1="101.76" y1="408.67" x2="86.33" y2="402.74"/><line class="cls-4" x1="99.75" y1="413.26" x2="84.26" y2="407.47"/><line class="cls-4" x1="98.4" y1="417.27" x2="82.87" y2="411.61"/><line class="cls-4" x1="96.63" y1="421.95" x2="81.04" y2="416.44"/><line class="cls-4" x1="95.44" y1="426.02" x2="79.82" y2="420.64"/><line class="cls-4" x1="93.66" y1="430.71" x2="77.99" y2="425.47"/><line class="cls-4" x1="92.48" y1="434.77" x2="76.77" y2="429.66"/><line class="cls-4" x1="90.7" y1="439.46" x2="74.94" y2="434.49"/><line class="cls-4" x1="89.63" y1="443.56" x2="73.83" y2="438.72"/><line class="cls-4" x1="88.09" y1="448.32" x2="72.24" y2="443.63"/><line class="cls-4" x1="87.11" y1="452.44" x2="71.22" y2="447.88"/><line class="cls-4" x1="85.56" y1="457.21" x2="69.64" y2="452.8"/><line class="cls-4" x1="84.59" y1="461.33" x2="68.62" y2="457.04"/><line class="cls-4" x1="83.04" y1="466.1" x2="67.04" y2="461.96"/><line class="cls-4" x1="82.24" y1="470.26" x2="66.21" y2="466.26"/><line class="cls-4" x1="80.94" y1="475.09" x2="64.86" y2="471.24"/><line class="cls-4" x1="80.16" y1="479.26" x2="64.06" y2="475.54"/><line class="cls-4" x1="78.86" y1="484.1" x2="62.72" y2="480.52"/><line class="cls-4" x1="78.09" y1="488.26" x2="61.92" y2="484.82"/><line class="cls-4" x1="76.81" y1="493.11" x2="60.62" y2="489.82"/><line class="cls-4" x1="76.25" y1="497.31" x2="60.03" y2="494.15"/><line class="cls-4" x1="75.19" y1="502.21" x2="58.94" y2="499.2"/><line class="cls-4" x1="74.63" y1="506.41" x2="58.35" y2="503.53"/><line class="cls-4" x1="73.56" y1="511.3" x2="57.26" y2="508.58"/><line class="cls-4" x1="73" y1="515.5" x2="56.68" y2="512.9"/><line class="cls-4" x1="72.02" y1="520.41" x2="55.68" y2="517.97"/><line class="cls-4" x1="71.67" y1="524.64" x2="55.31" y2="522.33"/><line class="cls-4" x1="70.86" y1="529.58" x2="54.47" y2="527.42"/><line class="cls-4" x1="70.51" y1="533.8" x2="54.11" y2="531.77"/><line class="cls-4" x1="69.7" y1="538.75" x2="53.27" y2="536.87"/><line class="cls-4" x1="69.34" y1="542.97" x2="52.91" y2="541.22"/><line class="cls-4" x1="68.65" y1="547.93" x2="52.2" y2="546.34"/><line class="cls-4" x1="68.52" y1="552.17" x2="52.06" y2="550.7"/><line class="cls-4" x1="67.96" y1="557.15" x2="51.48" y2="555.83"/><line class="cls-4" x1="67.82" y1="561.38" x2="51.33" y2="560.2"/><line class="cls-4" x1="67.25" y1="566.36" x2="50.76" y2="565.33"/><line class="cls-4" x1="67.12" y1="570.59" x2="50.61" y2="569.7"/><line class="cls-4" x1="66.71" y1="575.59" x2="50.19" y2="574.84"/><line class="cls-4" x1="66.78" y1="579.83" x2="50.27" y2="579.21"/><line class="cls-4" x1="66.47" y1="584.83" x2="49.95" y2="584.36"/><line class="cls-4" x1="66.55" y1="589.06" x2="50.03" y2="588.73"/><line class="cls-4" x1="66.24" y1="594.07" x2="49.71" y2="593.89"/><line class="cls-4" x1="66.32" y1="598.75" x2="49.79" y2="598.69"/><line class="cls-4" x1="66.17" y1="603.31" x2="49.64" y2="603.41"/><line class="cls-4" x1="66.46" y1="607.54" x2="49.94" y2="607.77"/><line class="cls-4" x1="66.41" y1="612.55" x2="49.88" y2="612.93"/><line class="cls-4" x1="66.7" y1="616.78" x2="50.18" y2="617.29"/><line class="cls-4" x1="66.64" y1="621.79" x2="50.12" y2="622.45"/><line class="cls-4" x1="66.93" y1="626.02" x2="50.42" y2="626.81"/><line class="cls-4" x1="67.05" y1="631.02" x2="50.55" y2="631.96"/><line class="cls-4" x1="67.56" y1="635.23" x2="51.06" y2="636.31"/><line class="cls-4" x1="67.75" y1="640.24" x2="51.27" y2="641.46"/><line class="cls-4" x1="68.26" y1="644.44" x2="51.78" y2="645.8"/><line class="cls-4" x1="68.45" y1="649.45" x2="51.99" y2="650.96"/><line class="cls-4" x1="68.96" y1="653.66" x2="52.51" y2="655.3"/><line class="cls-4" x1="69.35" y1="658.65" x2="52.92" y2="660.44"/><line class="cls-4" x1="70.07" y1="662.83" x2="53.66" y2="664.75"/><line class="cls-4" x1="70.52" y1="667.81" x2="54.12" y2="669.89"/><line class="cls-4" x1="71.24" y1="671.99" x2="54.86" y2="674.2"/><line class="cls-4" x1="71.68" y1="676.98" x2="55.33" y2="679.34"/><line class="cls-4" x1="72.4" y1="681.16" x2="56.06" y2="683.65"/><line class="cls-4" x1="73.09" y1="686.11" x2="56.78" y2="688.76"/><line class="cls-4" x1="74.02" y1="690.25" x2="57.73" y2="693.03"/><line class="cls-4" x1="74.72" y1="695.21" x2="58.45" y2="698.14"/><line class="cls-4" x1="75.64" y1="699.34" x2="59.4" y2="702.4"/><line class="cls-4" x1="76.34" y1="704.31" x2="60.13" y2="707.52"/><line class="cls-4" x1="77.31" y1="708.43" x2="61.12" y2="711.77"/><line class="cls-4" x1="78.25" y1="713.35" x2="62.1" y2="716.84"/><line class="cls-4" x1="79.39" y1="717.43" x2="63.26" y2="721.05"/><line class="cls-4" x1="80.33" y1="722.35" x2="64.24" y2="726.12"/><line class="cls-4" x1="81.46" y1="726.43" x2="65.4" y2="730.33"/><line class="cls-4" x1="82.41" y1="731.35" x2="66.38" y2="735.41"/><line class="cls-4" x1="83.64" y1="735.41" x2="67.65" y2="739.59"/><line class="cls-4" x1="84.83" y1="740.27" x2="68.88" y2="744.6"/><line class="cls-4" x1="86.16" y1="744.29" x2="70.25" y2="748.75"/><line class="cls-4" x1="87.35" y1="749.16" x2="71.48" y2="753.77"/><line class="cls-4" x1="88.69" y1="753.18" x2="72.85" y2="757.91"/><line class="cls-4" x1="89.87" y1="758.05" x2="74.09" y2="762.93"/><line class="cls-4" x1="91.37" y1="762.01" x2="75.62" y2="767.02"/><line class="cls-4" x1="92.8" y1="766.81" x2="77.1" y2="771.97"/><line class="cls-4" x1="94.33" y1="770.76" x2="78.67" y2="776.05"/><line class="cls-4" x1="95.76" y1="775.56" x2="80.15" y2="781"/><line class="cls-4" x1="97.29" y1="779.51" x2="81.73" y2="785.07"/><line class="cls-4" x1="98.76" y1="784.3" x2="83.25" y2="790.01"/><line class="cls-4" x1="100.48" y1="788.18" x2="85.02" y2="794.01"/><line class="cls-4" x1="102.15" y1="792.9" x2="86.74" y2="798.87"/><line class="cls-4" x1="103.87" y1="796.77" x2="88.51" y2="802.87"/><line class="cls-4" x1="105.54" y1="801.5" x2="90.23" y2="807.74"/><line class="cls-4" x1="107.26" y1="805.37" x2="92.01" y2="811.73"/><line class="cls-4" x1="109.04" y1="810.05" x2="93.84" y2="816.55"/><line class="cls-4" x1="110.95" y1="813.83" x2="95.81" y2="820.46"/><line class="cls-4" x1="112.84" y1="818.47" x2="97.77" y2="825.24"/><line class="cls-4" x1="114.76" y1="822.25" x2="99.73" y2="829.14"/><line class="cls-4" x1="116.65" y1="826.89" x2="101.69" y2="833.92"/><line class="cls-4" x1="118.56" y1="830.67" x2="103.66" y2="837.82"/><line class="cls-4" x1="120.64" y1="835.22" x2="105.81" y2="842.51"/><line class="cls-4" x1="122.74" y1="838.91" x2="107.96" y2="846.31"/><line class="cls-4" x1="124.85" y1="843.44" x2="110.15" y2="850.99"/><line class="cls-4" x1="126.95" y1="847.13" x2="112.3" y2="854.79"/><line class="cls-4" x1="129.06" y1="851.67" x2="114.49" y2="859.47"/><line class="cls-4" x1="131.2" y1="855.33" x2="116.69" y2="863.24"/><line class="cls-4" x1="133.54" y1="859.75" x2="119.1" y2="867.81"/><line class="cls-4" x1="135.81" y1="863.33" x2="121.44" y2="871.5"/><line class="cls-4" x1="138.14" y1="867.77" x2="123.85" y2="876.07"/><line class="cls-4" x1="140.41" y1="871.34" x2="126.19" y2="879.76"/><line class="cls-4" x1="142.75" y1="875.78" x2="128.6" y2="884.33"/><line class="cls-4" x1="145.14" y1="879.28" x2="131.06" y2="887.94"/><line class="cls-4" x1="147.68" y1="883.59" x2="133.69" y2="892.38"/><line class="cls-4" x1="150.13" y1="887.05" x2="136.2" y2="895.96"/><line class="cls-4" x1="152.67" y1="891.37" x2="138.83" y2="900.4"/><line class="cls-4" x1="155.11" y1="894.83" x2="141.34" y2="903.97"/><line class="cls-4" x1="157.69" y1="899.13" x2="144" y2="908.4"/><line class="cls-4" x1="160.3" y1="902.48" x2="146.69" y2="911.85"/><line class="cls-4" x1="163.04" y1="906.66" x2="149.52" y2="916.17"/><line class="cls-4" x1="165.65" y1="910" x2="152.21" y2="919.62"/><line class="cls-4" x1="168.4" y1="914.19" x2="155.05" y2="923.93"/><line class="cls-4" x1="171" y1="917.53" x2="157.73" y2="927.38"/><line class="cls-4" x1="173.86" y1="921.65" x2="160.68" y2="931.61"/><line class="cls-4" x1="176.63" y1="924.86" x2="163.52" y2="934.93"/><line class="cls-4" x1="179.57" y1="928.91" x2="166.56" y2="939.1"/><line class="cls-4" x1="182.34" y1="932.13" x2="169.41" y2="942.42"/><line class="cls-4" x1="185.28" y1="936.18" x2="172.45" y2="946.59"/><line class="cls-4" x1="188.04" y1="939.39" x2="175.29" y2="949.91"/><line class="cls-4" x1="191.17" y1="943.3" x2="178.52" y2="953.93"/><line class="cls-4" x1="194.09" y1="946.38" x2="181.52" y2="957.11"/><line class="cls-4" x1="197.22" y1="950.28" x2="184.76" y2="961.13"/><line class="cls-4" x1="200.14" y1="953.36" x2="187.76" y2="964.31"/><line class="cls-4" x1="203.27" y1="957.27" x2="191" y2="968.33"/><line class="cls-4" x1="206.25" y1="960.28" x2="194.06" y2="971.44"/><line class="cls-4" x1="209.57" y1="964.03" x2="197.49" y2="975.31"/><line class="cls-4" x1="212.63" y1="966.97" x2="200.63" y2="978.34"/><line class="cls-4" x1="215.95" y1="970.72" x2="204.06" y2="982.2"/><line class="cls-4" x1="219" y1="973.66" x2="207.21" y2="985.23"/><line class="cls-4" x1="222.33" y1="977.41" x2="210.64" y2="989.09"/><line class="cls-4" x1="225.52" y1="980.21" x2="213.92" y2="991.98"/><line class="cls-4" x1="229.01" y1="983.79" x2="217.52" y2="995.68"/><line class="cls-4" x1="232.2" y1="986.58" x2="220.81" y2="998.56"/><line class="cls-4" x1="235.7" y1="990.17" x2="224.42" y2="1002.25"/><line class="cls-4" x1="238.89" y1="992.96" x2="227.7" y2="1005.13"/><line class="cls-4" x1="242.45" y1="996.48" x2="231.38" y2="1008.75"/><line class="cls-4" x1="245.77" y1="999.12" x2="234.8" y2="1011.47"/><line class="cls-4" x1="249.44" y1="1002.53" x2="238.58" y2="1014.99"/><line class="cls-4" x1="252.76" y1="1005.17" x2="242" y2="1017.71"/><line class="cls-4" x1="256.42" y1="1008.58" x2="245.78" y2="1021.23"/><line class="cls-4" x1="259.74" y1="1011.22" x2="249.2" y2="1023.94"/><line class="cls-4" x1="263.53" y1="1014.49" x2="253.1" y2="1027.31"/><line class="cls-4" x1="266.98" y1="1016.96" x2="256.65" y2="1029.87"/><line class="cls-4" x1="270.8" y1="1020.2" x2="260.59" y2="1033.2"/><line class="cls-4" x1="274.24" y1="1022.67" x2="264.14" y2="1035.75"/><line class="cls-4" x1="278.06" y1="1025.91" x2="268.09" y2="1039.09"/><line class="cls-4" x1="281.53" y1="1028.34" x2="271.66" y2="1041.59"/><line class="cls-4" x1="285.5" y1="1031.39" x2="275.76" y2="1044.73"/><line class="cls-4" x1="289.06" y1="1033.69" x2="279.42" y2="1047.11"/><line class="cls-4" x1="293.04" y1="1036.74" x2="283.52" y2="1050.26"/><line class="cls-4" x1="296.59" y1="1039.04" x2="287.18" y2="1052.63"/><line class="cls-4" x1="300.57" y1="1042.1" x2="291.29" y2="1055.78"/><line class="cls-4" x1="304.21" y1="1044.27" x2="295.03" y2="1058.02"/><line class="cls-4" x1="308.32" y1="1047.13" x2="299.27" y2="1060.96"/><line class="cls-4" x1="311.98" y1="1049.26" x2="303.05" y2="1063.17"/><line class="cls-4" x1="316.1" y1="1052.12" x2="307.3" y2="1066.11"/><line class="cls-4" x1="319.76" y1="1054.25" x2="311.07" y2="1068.3"/><line class="cls-4" x1="323.9" y1="1057.07" x2="315.34" y2="1071.21"/><line class="cls-4" x1="327.67" y1="1059.02" x2="319.22" y2="1073.23"/><line class="cls-4" x1="331.91" y1="1061.68" x2="323.6" y2="1075.96"/><line class="cls-4" x1="335.67" y1="1063.63" x2="327.48" y2="1077.98"/><line class="cls-4" x1="339.92" y1="1066.28" x2="331.86" y2="1080.71"/><line class="cls-4" x1="343.68" y1="1068.23" x2="335.73" y2="1082.72"/><line class="cls-4" x1="348" y1="1070.77" x2="340.19" y2="1085.33"/><line class="cls-4" x1="351.85" y1="1072.54" x2="344.16" y2="1087.16"/><line class="cls-4" x1="356.22" y1="1074.98" x2="348.67" y2="1089.68"/><line class="cls-4" x1="360.08" y1="1076.75" x2="352.64" y2="1091.5"/><line class="cls-4" x1="364.45" y1="1079.19" x2="357.15" y2="1094.02"/><line class="cls-4" x1="368.3" y1="1080.96" x2="361.11" y2="1095.84"/><line class="cls-4" x1="372.77" y1="1083.2" x2="365.73" y2="1098.15"/><line class="cls-4" x1="376.71" y1="1084.78" x2="369.78" y2="1099.79"/><line class="cls-4" x1="381.19" y1="1087.01" x2="374.41" y2="1102.08"/><line class="cls-4" x1="385.13" y1="1088.58" x2="378.46" y2="1103.71"/><line class="cls-4" x1="389.61" y1="1090.82" x2="383.09" y2="1106"/><line class="cls-4" x1="393.57" y1="1092.33" x2="387.17" y2="1107.57"/><line class="cls-4" x1="398.16" y1="1094.33" x2="391.9" y2="1109.63"/><line class="cls-4" x1="402.16" y1="1095.71" x2="396.03" y2="1111.06"/><line class="cls-4" x1="406.75" y1="1097.72" x2="400.77" y2="1113.13"/><line class="cls-4" x1="410.76" y1="1099.1" x2="404.89" y2="1114.55"/><line class="cls-4" x1="415.35" y1="1101.11" x2="409.63" y2="1116.62"/><line class="cls-4" x1="419.4" y1="1102.35" x2="413.81" y2="1117.9"/><line class="cls-4" x1="424.08" y1="1104.12" x2="418.64" y2="1119.73"/><line class="cls-4" x1="428.15" y1="1105.31" x2="422.83" y2="1120.95"/><line class="cls-4" x1="432.83" y1="1107.09" x2="427.66" y2="1122.78"/><line class="cls-4" x1="436.9" y1="1108.27" x2="431.86" y2="1124.01"/><line class="cls-4" x1="441.59" y1="1110.03" x2="436.7" y2="1125.82"/><line class="cls-4" x1="445.72" y1="1111.01" x2="440.95" y2="1126.83"/><line class="cls-4" x1="450.48" y1="1112.55" x2="445.86" y2="1128.42"/><line class="cls-4" x1="454.61" y1="1113.53" x2="450.11" y2="1129.44"/><line class="cls-4" x1="459.37" y1="1115.08" x2="455.03" y2="1131.02"/><line class="cls-4" x1="463.49" y1="1116.06" x2="459.28" y2="1132.04"/><line class="cls-4" x1="468.28" y1="1117.52" x2="464.22" y2="1133.54"/><line class="cls-4" x1="472.45" y1="1118.29" x2="468.52" y2="1134.34"/><line class="cls-4" x1="477.29" y1="1119.59" x2="473.5" y2="1135.68"/><line class="cls-4" x1="481.45" y1="1120.36" x2="477.8" y2="1136.48"/><line class="cls-4" x1="486.29" y1="1121.67" x2="482.79" y2="1137.82"/><line class="cls-4" x1="490.45" y1="1122.44" x2="487.08" y2="1138.62"/><line class="cls-4" x1="495.32" y1="1123.6" x2="492.1" y2="1139.81"/><line class="cls-4" x1="499.53" y1="1124.16" x2="496.43" y2="1140.4"/><line class="cls-4" x1="504.42" y1="1125.23" x2="501.48" y2="1141.49"/><line class="cls-4" x1="508.62" y1="1125.79" x2="505.81" y2="1142.08"/><line class="cls-4" x1="513.52" y1="1126.85" x2="510.86" y2="1143.16"/><line class="cls-4" x1="517.71" y1="1127.41" x2="515.19" y2="1143.75"/><line class="cls-4" x1="522.65" y1="1128.28" x2="520.27" y2="1144.63"/><line class="cls-4" x1="526.87" y1="1128.63" x2="524.63" y2="1145"/><line class="cls-4" x1="531.81" y1="1129.44" x2="529.72" y2="1145.84"/><line class="cls-4" x1="536.04" y1="1129.79" x2="534.08" y2="1146.2"/><line class="cls-4" x1="540.98" y1="1130.61" x2="539.17" y2="1147.03"/><line class="cls-4" x1="545.2" y1="1130.96" x2="543.53" y2="1147.4"/><line class="cls-4" x1="550.17" y1="1131.53" x2="548.65" y2="1147.99"/><line class="cls-4" x1="554.41" y1="1131.67" x2="553.02" y2="1148.13"/><line class="cls-4" x1="559.39" y1="1132.23" x2="558.15" y2="1148.71"/><line class="cls-4" x1="563.63" y1="1132.37" x2="562.52" y2="1148.86"/><line class="cls-4" x1="568.61" y1="1132.93" x2="567.65" y2="1149.43"/><line class="cls-4" x1="572.84" y1="1133.05" x2="572.01" y2="1149.56"/><line class="cls-4" x1="577.84" y1="1133.36" x2="577.16" y2="1149.88"/><line class="cls-4" x1="582.08" y1="1133.28" x2="581.53" y2="1149.8"/><line class="cls-4" x1="587.08" y1="1133.59" x2="586.68" y2="1150.12"/><line class="cls-4" x1="591.31" y1="1133.52" x2="591.05" y2="1150.04"/><line class="cls-4" x1="596.32" y1="1133.83" x2="596.21" y2="1150.36"/><line class="cls-4" x1="600.55" y1="1133.72" x2="600.57" y2="1150.25"/><line class="cls-4" x1="605.56" y1="1133.78" x2="605.73" y2="1150.31"/><line class="cls-4" x1="609.79" y1="1133.49" x2="610.09" y2="1150.01"/><line class="cls-4" x1="614.8" y1="1133.55" x2="615.25" y2="1150.07"/><line class="cls-4" x1="619.03" y1="1133.25" x2="619.61" y2="1149.77"/><line class="cls-4" x1="624.04" y1="1133.31" x2="624.77" y2="1149.83"/><line class="cls-4" x1="628.26" y1="1132.98" x2="629.12" y2="1149.49"/><line class="cls-4" x1="633.27" y1="1132.78" x2="634.28" y2="1149.28"/><line class="cls-4" x1="637.48" y1="1132.28" x2="638.62" y2="1148.77"/><line class="cls-4" x1="642.48" y1="1132.08" x2="643.78" y2="1148.56"/><line class="cls-4" x1="646.69" y1="1131.58" x2="648.12" y2="1148.04"/><line class="cls-4" x1="651.7" y1="1131.38" x2="653.28" y2="1147.84"/><line class="cls-4" x1="655.89" y1="1130.81" x2="657.61" y2="1147.25"/><line class="cls-4" x1="660.88" y1="1130.36" x2="662.75" y2="1146.79"/><line class="cls-4" x1="665.06" y1="1129.64" x2="667.05" y2="1146.05"/><line class="cls-4" x1="670.05" y1="1129.2" x2="672.2" y2="1145.58"/><line class="cls-4" x1="674.22" y1="1128.48" x2="676.5" y2="1144.85"/><line class="cls-4" x1="679.22" y1="1128.03" x2="681.65" y2="1144.38"/><line class="cls-4" x1="683.37" y1="1127.21" x2="685.93" y2="1143.54"/><line class="cls-4" x1="688.33" y1="1126.51" x2="691.04" y2="1142.82"/><line class="cls-4" x1="692.47" y1="1125.58" x2="695.31" y2="1141.87"/><line class="cls-4" x1="697.43" y1="1124.89" x2="700.42" y2="1141.14"/><line class="cls-4" x1="701.56" y1="1123.96" x2="704.69" y2="1140.19"/><line class="cls-4" x1="706.52" y1="1123.26" x2="709.8" y2="1139.46"/><line class="cls-4" x1="710.62" y1="1122.18" x2="714.03" y2="1138.36"/><line class="cls-4" x1="715.54" y1="1121.24" x2="719.1" y2="1137.38"/><line class="cls-4" x1="719.62" y1="1120.1" x2="723.31" y2="1136.22"/><line class="cls-4" x1="724.54" y1="1119.16" x2="728.38" y2="1135.23"/><line class="cls-4" x1="728.62" y1="1118.03" x2="732.59" y2="1134.07"/><line class="cls-4" x1="733.54" y1="1117.08" x2="737.67" y2="1133.08"/><line class="cls-4" x1="737.57" y1="1115.74" x2="741.82" y2="1131.71"/><line class="cls-4" x1="742.43" y1="1114.55" x2="746.83" y2="1130.48"/><line class="cls-4" x1="746.45" y1="1113.22" x2="750.98" y2="1129.11"/><line class="cls-4" x1="751.32" y1="1112.03" x2="756" y2="1127.88"/><line class="cls-4" x1="755.34" y1="1110.69" x2="760.15" y2="1126.51"/><line class="cls-4" x1="760.19" y1="1109.43" x2="765.14" y2="1125.2"/><line class="cls-4" x1="764.14" y1="1107.9" x2="769.22" y2="1123.62"/><line class="cls-4" x1="768.94" y1="1106.47" x2="774.17" y2="1122.15"/><line class="cls-4" x1="772.89" y1="1104.94" x2="778.24" y2="1120.57"/><line class="cls-4" x1="777.69" y1="1103.51" x2="783.19" y2="1119.09"/><line class="cls-4" x1="781.64" y1="1101.98" x2="787.27" y2="1117.52"/><line class="cls-4" x1="786.39" y1="1100.4" x2="792.17" y2="1115.89"/><line class="cls-4" x1="790.27" y1="1098.68" x2="796.16" y2="1114.12"/><line class="cls-4" x1="794.99" y1="1097.01" x2="801.03" y2="1112.4"/><line class="cls-4" x1="798.86" y1="1095.29" x2="805.02" y2="1110.62"/><line class="cls-4" x1="803.59" y1="1093.63" x2="809.9" y2="1108.9"/><line class="cls-4" x1="807.45" y1="1091.9" x2="813.89" y2="1107.13"/><line class="cls-4" x1="812.09" y1="1090.02" x2="818.67" y2="1105.19"/><line class="cls-4" x1="815.88" y1="1088.11" x2="822.57" y2="1103.22"/><line class="cls-4" x1="820.51" y1="1086.22" x2="827.35" y2="1101.26"/><line class="cls-4" x1="824.29" y1="1084.3" x2="831.25" y2="1099.3"/><line class="cls-4" x1="828.93" y1="1082.41" x2="836.03" y2="1097.34"/><line class="cls-4" x1="832.68" y1="1080.43" x2="839.9" y2="1095.3"/><line class="cls-4" x1="837.22" y1="1078.32" x2="844.57" y2="1093.12"/><line class="cls-4" x1="840.9" y1="1076.22" x2="848.37" y2="1090.96"/><line class="cls-4" x1="845.44" y1="1074.1" x2="853.05" y2="1088.77"/><line class="cls-4" x1="849.12" y1="1072.01" x2="856.85" y2="1086.62"/><line class="cls-4" x1="853.67" y1="1069.89" x2="861.53" y2="1084.43"/><line class="cls-4" x1="857.27" y1="1067.66" x2="865.25" y2="1082.13"/><line class="cls-4" x1="861.7" y1="1065.32" x2="869.81" y2="1079.72"/><line class="cls-4" x1="865.28" y1="1063.05" x2="873.51" y2="1077.38"/><line class="cls-4" x1="869.71" y1="1060.72" x2="878.07" y2="1074.97"/><line class="cls-4" x1="873.29" y1="1058.45" x2="881.76" y2="1072.63"/><line class="cls-4" x1="877.69" y1="1056.07" x2="886.31" y2="1070.18"/><line class="cls-4" x1="881.16" y1="1053.62" x2="889.88" y2="1067.66"/><line class="cls-4" x1="885.47" y1="1051.08" x2="894.33" y2="1065.04"/><line class="cls-4" x1="888.94" y1="1048.64" x2="897.9" y2="1062.52"/><line class="cls-4" x1="893.25" y1="1046.09" x2="902.35" y2="1059.89"/><line class="cls-4" x1="896.72" y1="1043.65" x2="905.92" y2="1057.38"/><line class="cls-4" x1="900.95" y1="1040.98" x2="910.28" y2="1054.63"/><line class="cls-4" x1="904.3" y1="1038.38" x2="913.74" y2="1051.94"/><line class="cls-4" x1="908.48" y1="1035.63" x2="918.05" y2="1049.1"/><line class="cls-4" x1="911.83" y1="1033.02" x2="921.5" y2="1046.42"/><line class="cls-4" x1="916.02" y1="1030.27" x2="925.81" y2="1043.58"/><line class="cls-4" x1="919.36" y1="1027.67" x2="929.26" y2="1040.9"/><line class="cls-4" x1="923.4" y1="1024.72" x2="933.43" y2="1037.86"/><line class="cls-4" x1="926.62" y1="1021.96" x2="936.75" y2="1035.02"/><line class="cls-4" x1="930.67" y1="1019.01" x2="940.92" y2="1031.97"/><line class="cls-4" x1="933.88" y1="1016.25" x2="944.23" y2="1029.13"/><line class="cls-4" x1="937.94" y1="1013.3" x2="948.41" y2="1026.09"/><line class="cls-4" x1="941.08" y1="1010.46" x2="951.65" y2="1023.17"/><line class="cls-4" x1="944.98" y1="1007.32" x2="955.67" y2="1019.93"/><line class="cls-4" x1="948.06" y1="1004.41" x2="958.85" y2="1016.93"/><line class="cls-4" x1="951.97" y1="1001.27" x2="962.87" y2="1013.69"/><line class="cls-4" x1="955.05" y1="998.36" x2="966.05" y2="1010.69"/><line class="cls-4" x1="958.96" y1="995.22" x2="970.07" y2="1007.45"/><line class="cls-4" x1="961.9" y1="992.16" x2="973.11" y2="1004.3"/><line class="cls-4" x1="965.64" y1="988.84" x2="976.97" y2="1000.88"/><line class="cls-4" x1="968.58" y1="985.79" x2="980" y2="997.73"/><line class="cls-4" x1="972.33" y1="982.47" x2="983.87" y2="994.31"/><line class="cls-4" x1="975.27" y1="979.41" x2="986.89" y2="991.16"/><line class="cls-4" x1="978.95" y1="976.02" x2="990.69" y2="987.66"/><line class="cls-4" x1="981.74" y1="972.82" x2="993.57" y2="984.37"/><line class="cls-4" x1="985.33" y1="969.33" x2="997.26" y2="980.76"/><line class="cls-4" x1="988.12" y1="966.13" x2="1000.14" y2="977.48"/><line class="cls-4" x1="991.71" y1="962.64" x2="1003.83" y2="973.87"/><line class="cls-4" x1="994.49" y1="959.45" x2="1006.71" y2="970.58"/><line class="cls-4" x1="997.94" y1="955.81" x2="1010.25" y2="966.83"/><line class="cls-4" x1="1000.57" y1="952.49" x2="1012.97" y2="963.41"/><line class="cls-4" x1="1003.99" y1="948.83" x2="1016.49" y2="959.63"/><line class="cls-4" x1="1006.62" y1="945.51" x2="1019.21" y2="956.21"/><line class="cls-4" x1="1010.04" y1="941.84" x2="1022.73" y2="952.43"/><line class="cls-4" x1="1012.62" y1="938.48" x2="1025.39" y2="948.97"/><line class="cls-4" x1="1015.86" y1="934.66" x2="1028.73" y2="945.03"/><line class="cls-4" x1="1018.33" y1="931.22" x2="1031.28" y2="941.49"/><line class="cls-4" x1="1021.57" y1="927.4" x2="1034.61" y2="937.54"/><line class="cls-4" x1="1024.04" y1="923.95" x2="1037.16" y2="934"/><line class="cls-4" x1="1027.28" y1="920.13" x2="1040.5" y2="930.05"/><line class="cls-4" x1="1029.62" y1="916.59" x2="1042.91" y2="926.41"/><line class="cls-4" x1="1032.67" y1="912.62" x2="1046.06" y2="922.31"/><line class="cls-4" x1="1034.97" y1="909.06" x2="1048.43" y2="918.65"/><line class="cls-4" x1="1038.02" y1="905.09" x2="1051.58" y2="914.55"/><line class="cls-4" x1="1040.32" y1="901.53" x2="1053.95" y2="910.88"/><line class="cls-4" x1="1043.33" y1="897.53" x2="1057.05" y2="906.75"/><line class="cls-4" x1="1045.46" y1="893.86" x2="1059.25" y2="902.97"/><line class="cls-4" x1="1048.32" y1="889.75" x2="1062.19" y2="898.73"/><line class="cls-4" x1="1050.45" y1="886.08" x2="1064.39" y2="894.96"/><line class="cls-4" x1="1053.31" y1="881.97" x2="1067.33" y2="890.71"/><line class="cls-4" x1="1055.43" y1="878.31" x2="1069.53" y2="886.94"/><line class="cls-4" x1="1058.16" y1="874.11" x2="1072.34" y2="882.61"/><line class="cls-4" x1="1060.11" y1="870.34" x2="1074.36" y2="878.73"/><line class="cls-4" x1="1062.77" y1="866.1" x2="1077.09" y2="874.35"/><line class="cls-4" x1="1064.72" y1="862.33" x2="1079.1" y2="870.47"/><line class="cls-4" x1="1067.38" y1="858.08" x2="1081.84" y2="866.09"/><line class="cls-4" x1="1069.32" y1="854.32" x2="1083.84" y2="862.21"/><line class="cls-4" x1="1071.76" y1="849.95" x2="1086.36" y2="857.7"/><line class="cls-4" x1="1073.53" y1="846.1" x2="1088.19" y2="853.73"/><line class="cls-4" x1="1075.98" y1="841.73" x2="1090.71" y2="849.22"/><line class="cls-4" x1="1077.74" y1="837.88" x2="1092.53" y2="845.26"/><line class="cls-4" x1="1080.19" y1="833.51" x2="1095.05" y2="840.74"/><line class="cls-4" x1="1081.87" y1="829.61" x2="1096.78" y2="836.73"/><line class="cls-4" x1="1084.09" y1="825.13" x2="1099.08" y2="832.11"/><line class="cls-4" x1="1085.67" y1="821.2" x2="1100.71" y2="828.06"/><line class="cls-4" x1="1087.9" y1="816.71" x2="1103" y2="823.43"/><line class="cls-4" x1="1089.48" y1="812.78" x2="1104.63" y2="819.38"/><line class="cls-4" x1="1091.71" y1="808.29" x2="1106.93" y2="814.75"/><line class="cls-4" x1="1093.11" y1="804.29" x2="1108.38" y2="810.62"/><line class="cls-4" x1="1095.12" y1="799.7" x2="1110.45" y2="805.89"/><line class="cls-4" x1="1096.5" y1="795.7" x2="1111.88" y2="801.76"/><line class="cls-4" x1="1098.51" y1="791.11" x2="1113.94" y2="797.03"/><line class="cls-4" x1="1099.89" y1="787.1" x2="1115.37" y2="792.9"/><line class="cls-4" x1="1101.85" y1="782.49" x2="1117.38" y2="788.14"/><line class="cls-4" x1="1103.03" y1="778.42" x2="1118.6" y2="783.94"/><line class="cls-4" x1="1104.81" y1="773.74" x2="1120.43" y2="779.12"/><line class="cls-4" x1="1105.99" y1="769.67" x2="1121.66" y2="774.92"/><line class="cls-4" x1="1107.77" y1="764.99" x2="1123.49" y2="770.09"/><line class="cls-4" x1="1108.95" y1="760.92" x2="1124.71" y2="765.9"/><line class="cls-4" x1="1110.6" y1="756.19" x2="1126.41" y2="761.02"/><line class="cls-4" x1="1111.58" y1="752.07" x2="1127.42" y2="756.77"/><line class="cls-4" x1="1113.12" y1="747.31" x2="1129.01" y2="751.86"/><line class="cls-4" x1="1114.1" y1="743.18" x2="1130.03" y2="747.61"/><line class="cls-4" x1="1115.65" y1="738.42" x2="1131.61" y2="742.69"/><line class="cls-4" x1="1116.63" y1="734.3" x2="1132.63" y2="738.44"/><line class="cls-4" x1="1117.98" y1="729.48" x2="1134.01" y2="733.47"/><line class="cls-4" x1="1118.75" y1="725.31" x2="1134.82" y2="729.17"/><line class="cls-4" x1="1120.05" y1="720.47" x2="1136.16" y2="724.19"/><line class="cls-4" x1="1120.82" y1="716.31" x2="1136.96" y2="719.89"/><line class="cls-4" x1="1122.13" y1="711.47" x2="1138.3" y2="714.9"/><line class="cls-4" x1="1122.89" y1="707.3" x2="1139.08" y2="710.61"/><line class="cls-4" x1="1123.95" y1="702.41" x2="1140.17" y2="705.56"/><line class="cls-4" x1="1124.51" y1="698.21" x2="1140.76" y2="701.23"/><line class="cls-4" x1="1125.57" y1="693.31" x2="1141.85" y2="696.18"/><line class="cls-4" x1="1126.14" y1="689.11" x2="1142.43" y2="691.85"/><line class="cls-4" x1="1127.2" y1="684.22" x2="1143.52" y2="686.8"/><line class="cls-4" x1="1127.7" y1="680.01" x2="1144.04" y2="682.47"/><line class="cls-4" x1="1128.51" y1="675.07" x2="1144.87" y2="677.37"/><line class="cls-4" x1="1128.86" y1="670.85" x2="1145.24" y2="673.02"/><line class="cls-4" x1="1129.67" y1="665.9" x2="1146.08" y2="667.92"/><line class="cls-4" x1="1130.02" y1="661.68" x2="1146.44" y2="663.57"/><line class="cls-4" x1="1130.84" y1="656.74" x2="1147.28" y2="658.47"/><line class="cls-4" x1="1131.08" y1="652.51" x2="1147.53" y2="654.11"/><line class="cls-4" x1="1131.65" y1="647.53" x2="1148.11" y2="648.98"/><line class="cls-4" x1="1131.78" y1="643.29" x2="1148.26" y2="644.62"/><line class="cls-4" x1="1132.35" y1="638.32" x2="1148.83" y2="639.48"/><line class="cls-4" x1="1132.48" y1="634.08" x2="1148.98" y2="635.12"/><line class="cls-4" x1="1133.05" y1="629.1" x2="1149.55" y2="629.99"/><line class="cls-4" x1="1133.05" y1="624.86" x2="1149.56" y2="625.62"/><line class="cls-4" x1="1133.36" y1="619.86" x2="1149.88" y2="620.47"/><line class="cls-4" x1="1133.28" y1="615.62" x2="1149.8" y2="616.1"/><line class="cls-4" x1="1133.59" y1="610.62" x2="1150.12" y2="610.94"/><line class="cls-4" x1="1133.52" y1="606.39" x2="1150.04" y2="606.58"/><line class="cls-4" x1="1133.83" y1="601.38" x2="1150.36" y2="601.42"/></g></g></g><g id="Graphic_elements" data-name="Graphic elements"><path class="cls-5" d="M305.81,851.78a24.6,24.6,0,0,0,22.29,35h0a24.56,24.56,0,0,0,24.59-24.7c-.08-10.52.41-20.45,2.51-20.62,11.76-1,31.56-2.8,36.81-2.8h24.88a19.36,19.36,0,0,0,12.81-4.84l38.88-34.23L497,767.28s.49-5.63-8.68-1.77S470,780.62,470,780.62s1-13,0-15-8.85-18.49-12.22-20.25-6.43,7.71-4.18,14.14,5,13.67,5,13.67l-3.37,18.32-2.74-9.32s2.9-1.77,2.9-4-1.29-4.66-4.83-5.46a10.83,10.83,0,0,0-2.36-.41c-.64-1.32-3.9-7.86-6.64-9.88-3.05-2.25-12.7-11.9-14.79-12.06s-3.7,3.22-1,10.45a33.33,33.33,0,0,0,8.68,12.22l-3.86.64s-11.09-13.83-14-13.83-4.66,4.51-2.09,9,3.86,7.07,3.86,7.07-23.95,3.38-30.22,3.38-27.81,6.43-33.12,10.12-22.15,13.81-26.2,18.17S314.75,832.62,305.81,851.78Zm130.7-63.2h2.65s.54,3.57,1,5.71-3.61,3.13-3.61,3.13.89-3.22,1-3.86A43,43,0,0,0,436.51,788.58Zm-28.94,5.71L424,791.1l.46,4.88-3.05,4.09C414,799.35,407.57,794.29,407.57,794.29Z"/><path class="cls-5" d="M418.42,776l4.83,7.23,1.2,12.79-9.16,12.29s-43.63-5.21-61.68,7.72"/><path class="cls-5" d="M426.38,823.71s11.09-26.77,11.09-30.15-4.52-17.06-6.83-19.85"/><path class="cls-5" d="M448.32,772.58l4.18,9.65,2.74,9.32.8,2.59a5.37,5.37,0,0,1-.53,4.39L445,816"/><line class="cls-5" x1="470.03" y1="780.62" x2="470.03" y2="792.12"/><polyline class="cls-5" points="434.5 773.07 437.47 777.29 439.16 788.58"/><path class="cls-5" d="M610,590c-.82-15.89-3.24-46.81-10-64h0c-6.77,17.16-9.19,48.08-10,64-14.66.75-55.29,10-55.29,10,17.16,6.77,39.4,9.19,55.29,10,.82,15.89,3.24,46.81,10,64h0c6.77-17.16,9.19-48.08,10-64,15.89-.82,38.13-3.24,55.29-10C665.3,600,625.9,590.81,610,590Z"/><line class="cls-5" x1="485.37" y1="600" x2="522.55" y2="600"/><line class="cls-5" x1="677.45" y1="600" x2="714.63" y2="600"/><line class="cls-5" x1="600" y1="485.37" x2="600" y2="516.08"/><line class="cls-5" x1="600" y1="683.92" x2="600" y2="714.63"/><line class="cls-5" x1="538.85" y1="538.85" x2="558.07" y2="558.07"/><line class="cls-5" x1="524.2" y1="524.2" x2="532.69" y2="532.69"/><line class="cls-5" x1="661.26" y1="661.26" x2="642.05" y2="642.05"/><line class="cls-5" x1="675.92" y1="675.92" x2="667.43" y2="667.43"/><line class="cls-5" x1="558.07" y1="641.93" x2="537.95" y2="662.05"/><line class="cls-5" x1="661.26" y1="538.85" x2="642.05" y2="558.07"/><line class="cls-5" x1="675.92" y1="524.2" x2="667.43" y2="532.69"/><line class="cls-5" x1="524.2" y1="675.92" x2="532.69" y2="667.43"/><line class="cls-5" x1="519.26" y1="565.6" x2="545.45" y2="576.76"/><line class="cls-5" x1="654.55" y1="623.24" x2="680.74" y2="634.4"/><line class="cls-5" x1="634.4" y1="519.26" x2="623.24" y2="545.45"/><line class="cls-5" x1="576.76" y1="654.55" x2="565.6" y2="680.74"/><line class="cls-5" x1="567.23" y1="518.59" x2="577.86" y2="544.99"/><line class="cls-5" x1="622.14" y1="655.01" x2="632.77" y2="681.41"/><line class="cls-5" x1="681.41" y1="567.23" x2="655.01" y2="577.86"/><line class="cls-5" x1="544.99" y1="622.14" x2="518.59" y2="632.77"/><polygon class="cls-5" points="914.46 516.43 874.15 529.95 865.71 488.28 857.26 529.95 816.96 516.43 848.82 544.58 816.96 572.73 857.26 559.2 865.71 600.87 874.15 559.2 914.46 572.73 882.6 544.58 914.46 516.43"/><path class="cls-5" d="M368.6,542.92a44,44,0,0,1-34.05-35.15,78.55,78.55,0,0,0-3.77-14.44h0A78.07,78.07,0,0,0,327,507.8,44,44,0,0,1,292.82,543c-4.33.93-7.28,1.6-7.28,1.6a77.89,77.89,0,0,0,9.45,3c16.62,4.17,29,18,32.19,34.81a76,76,0,0,0,3.6,13.46h0a76.09,76.09,0,0,0,3.59-13.46c3.16-16.84,15.58-30.64,32.19-34.81a78.61,78.61,0,0,0,9.46-3S373,543.88,368.6,542.92Z"/><line class="cls-5" x1="621.86" y1="1080.48" x2="633.54" y2="1092.16"/><line class="cls-5" x1="566.46" y1="1025.07" x2="578.13" y2="1036.75"/><line class="cls-5" x1="578.14" y1="1080.47" x2="566.46" y2="1092.16"/><line class="cls-5" x1="633.54" y1="1025.07" x2="621.86" y2="1036.75"/><path class="cls-5" d="M645.24,1058.61s-12.19-2.84-23.56-4.9a19.39,19.39,0,0,1-9-4.22,51,51,0,0,0,6.06-9.62h0a50.7,50.7,0,0,0-9.46,5.94,19.31,19.31,0,0,1-3.49-9.26c-1-10.16-2.8-21.61-5.79-29.19-3,7.59-4.76,19.06-5.79,29.23a19.39,19.39,0,0,1-3.91,9.83c-4.36-3.11-9-6.55-9-6.55,1.12,2.59,3.89,6.41,6.22,9.52a19.4,19.4,0,0,1-9.17,4.37c-11.27,2-23.55,4.85-23.55,4.85a100.77,100.77,0,0,0,22.49,5.47,20,20,0,0,1,9.69,4.15,49.78,49.78,0,0,0-5.68,9.12,48.9,48.9,0,0,0,9.09-5.66,19.73,19.73,0,0,1,4,9.9c1,9.92,2.79,20.92,5.69,28.27,2.9-7.35,4.65-18.35,5.69-28.27a19.65,19.65,0,0,1,4.08-10,55.29,55.29,0,0,0,9,5.81s-3.21-4.4-6.25-8.66a20,20,0,0,1,10.26-4.61A100.77,100.77,0,0,0,645.24,1058.61Z"/><circle class="cls-5" cx="971.15" cy="287.21" r="64.14"/><line class="cls-5" x1="971.15" y1="206.4" x2="971.15" y2="124.48"/><line class="cls-5" x1="971.15" y1="449.94" x2="971.15" y2="368.02"/><line class="cls-5" x1="890.34" y1="287.21" x2="808.42" y2="287.21"/><line class="cls-5" x1="1133.88" y1="287.21" x2="1051.96" y2="287.21"/><line class="cls-5" x1="914.01" y1="230.07" x2="873.1" y2="189.16"/><line class="cls-5" x1="1069.2" y1="385.26" x2="1028.29" y2="344.35"/><line class="cls-5" x1="914.01" y1="344.35" x2="873.1" y2="385.26"/><line class="cls-5" x1="1069.2" y1="189.16" x2="1028.29" y2="230.07"/><line class="cls-5" x1="940.99" y1="212.24" x2="919.39" y2="158.57"/><line class="cls-5" x1="1022.92" y1="415.85" x2="1001.32" y2="362.18"/><line class="cls-5" x1="896.18" y1="317.38" x2="842.51" y2="338.98"/><line class="cls-5" x1="1099.79" y1="235.45" x2="1046.12" y2="257.05"/><line class="cls-5" x1="896.81" y1="255.53" x2="843.59" y2="232.85"/><line class="cls-5" x1="1098.72" y1="341.57" x2="1045.49" y2="318.89"/><line class="cls-5" x1="939.47" y1="361.55" x2="916.79" y2="414.78"/><line class="cls-5" x1="1025.51" y1="159.65" x2="1002.83" y2="212.87"/><line class="cls-5" x1="905.17" y1="240.56" x2="880.44" y2="223.07"/><line class="cls-5" x1="1061.86" y1="351.36" x2="1037.13" y2="333.87"/><line class="cls-5" x1="924.5" y1="353.19" x2="907.01" y2="377.93"/><line class="cls-5" x1="1035.3" y1="196.5" x2="1017.81" y2="221.23"/><line class="cls-5" x1="892.03" y1="270.8" x2="862.37" y2="264.65"/><line class="cls-5" x1="1079.94" y1="309.77" x2="1050.28" y2="303.62"/><line class="cls-5" x1="954.74" y1="366.34" x2="948.59" y2="396"/><line class="cls-5" x1="993.71" y1="178.43" x2="987.56" y2="208.09"/><line class="cls-5" x1="891.51" y1="300.88" x2="861.65" y2="306"/><line class="cls-5" x1="1080.65" y1="268.42" x2="1050.8" y2="273.55"/><line class="cls-5" x1="984.82" y1="366.86" x2="989.94" y2="396.71"/><line class="cls-5" x1="952.36" y1="177.71" x2="957.49" y2="207.57"/><line class="cls-5" x1="926.97" y1="219.55" x2="910.4" y2="194.19"/><line class="cls-5" x1="1031.9" y1="380.23" x2="1015.34" y2="354.87"/><line class="cls-5" x1="903.49" y1="331.4" x2="878.13" y2="347.96"/><line class="cls-5" x1="1064.17" y1="226.46" x2="1038.81" y2="243.03"/><path class="cls-5" d="M929.88,287.21a55.13,55.13,0,0,1,86.92-45,64.15,64.15,0,1,0,0,90.11,55.14,55.14,0,0,1-86.92-45.06Z"/><path class="cls-5" d="M193.08,340.06C195.94,333.62,185,321,185,321l1.77-3.1c1.78-3.1-3.2-6.43-3.2-6.43,1.9-1.91,2.14-3.34-.24-6.2s.71-7.63.71-7.63c7.87,0,10.73-1.66,11.68-3.81s-6.19-20.73-12.22-27.41-5.65-12.86-5.65-12.86,4.06-3.7,5.24-6.68a8.21,8.21,0,0,0,.37-5.41c-4-15.44-.09-31.92,11.91-42.44a117.14,117.14,0,0,1,144.78-7.6,136,136,0,0,0-101.08-40.53C166.54,153,107.76,212.66,106.71,285.18A136.37,136.37,0,0,0,340.13,383c-3,2.1-6,4-9.19,5.86l9.19-5.86C221.68,425,190.22,346.49,193.08,340.06Z"/><path class="cls-5" d="M168.91,252.29s-.5,5.43-3.71,6.5-17.47,5-17.47,5,12.46,4.65,16.75,4.65,3.55,5.08,3.55,5.08"/><path class="cls-5" d="M165.65,311.82c13.73,4.52,16.39,1.73,17.17.64l.73-1"/><path class="cls-5" d="M168.41,263.68c0,2.59-1.31,4.68-2.94,4.68s-2.95-2.09-2.95-4.68,1.32-4.67,2.95-4.67S168.41,261.1,168.41,263.68Z"/><path class="cls-5" d="M171.69,290.72s-3.39,8.34,5.66,8.11"/><path class="cls-5" d="M142.5,248.46A37.88,37.88,0,0,1,152.74,244c13.37-4.11,18,1.65,18,1.65"/><path class="cls-5" d="M183.31,305.26l-1.55,2.86a3.74,3.74,0,0,0-3.57,0,17.92,17.92,0,0,0-3.59,1.95"/><path class="cls-5" d="M168.91,316.34s6.18,5.13,10.47,4.89"/><path class="cls-5" d="M162.52,255a60.25,60.25,0,0,0-10,2.32c-4.65,1.6-11.8,3.56-11.8,3.56"/><path class="cls-5" d="M160.55,305.26s-3.39,4.53-2.23,9.06"/><circle class="cls-5" cx="599.99" cy="248.44" r="69.87"/><path class="cls-5" d="M642,239.18a8.94,8.94,0,0,1-4-2.83c-1.26-1.88-5.95-4-9.91-4s-8.64,2.08-9.9,4a9,9,0,0,1-4,2.83"/><path class="cls-5" d="M632.42,236.68a4.29,4.29,0,1,1-4.29-4.29A4.29,4.29,0,0,1,632.42,236.68Z"/><path class="cls-5" d="M612.94,235a78.1,78.1,0,0,1,7.65-6.09c2.4-1.41,9.08-2.12,11.83-.85s7.84,6.94,7.84,6.94"/><path class="cls-5" d="M610.68,261s3.25,2.83,2.55,6.66-4.53,3.39-7.22,3.53-4.1,3.54-7.08,3.4c-3,.14-4.38-3.26-7.07-3.4s-6.51.29-7.22-3.53,2.55-6.66,2.55-6.66"/><path class="cls-5" d="M595.68,268.67s-2.83-1.28-1.7-6.37,2.69-4,2.69-12V232.39"/><path class="cls-5" d="M614.92,285.71a46.59,46.59,0,0,1-5.8.31c-2.27-.11-3.27-.73-5-.66-3.39.14-3.24,1.27-5.22,1.34s-1.82-1.2-5.22-1.34c-1.69-.07-2.7.55-5,.66a46.74,46.74,0,0,1-5.8-.31"/><path class="cls-5" d="M607.57,283.24S604,281.4,603,281.69a27,27,0,0,0-4.11,2.54,26.77,26.77,0,0,0-4.1-2.54c-1-.29-4.53,1.55-4.53,1.55"/><path class="cls-5" d="M609.69,288.05s-6.37,4.25-10.76,4.25-10.75-4.25-10.75-4.25"/><path class="cls-5" d="M609.69,220.13s12-11.89,33.54,0"/><path class="cls-5" d="M558,239.18a8.94,8.94,0,0,0,4-2.83c1.26-1.88,5.95-4,9.91-4s8.64,2.08,9.9,4a9,9,0,0,0,4,2.83"/><path class="cls-5" d="M567.57,236.68a4.29,4.29,0,1,0,4.29-4.29A4.29,4.29,0,0,0,567.57,236.68Z"/><path class="cls-5" d="M587.05,235a78.1,78.1,0,0,0-7.65-6.09c-2.4-1.41-9.08-2.12-11.83-.85s-7.84,6.94-7.84,6.94"/><path class="cls-5" d="M590.3,220.13s-12-11.89-33.54,0"/><path class="cls-5" d="M609.65,179.24a722,722,0,0,0-7.34-78.07L600,85.73l-2.32,15.44a722,722,0,0,0-7.34,78.07,68.88,68.88,0,0,1,19.31,0Z"/><path class="cls-5" d="M590.35,317.68a721.56,721.56,0,0,0,7.34,78.07L600,411.19l2.32-15.44a721.56,721.56,0,0,0,7.34-78.07,68.88,68.88,0,0,1-19.31,0Z"/><path class="cls-5" d="M669.22,258.11a716.78,716.78,0,0,0,78.07-7.34l15.44-2.31-15.44-2.31a716.78,716.78,0,0,0-78.07-7.34,68.81,68.81,0,0,1,0,19.3Z"/><path class="cls-5" d="M530.78,238.82a716.78,716.78,0,0,0-78.07,7.34l-15.44,2.31,15.44,2.31a716.78,716.78,0,0,0,78.07,7.34,68.81,68.81,0,0,1,0-19.3Z"/><path class="cls-5" d="M571.86,158.18c-9.94-4.77-19.48-15.4-21.62-25.69s-5.3-25.31-19.45-24.83c0,0,12.06,7.86,11.64,21.21-.29,9.29-4.35,20.73,3,28.6s14.27,15.21,14.27,23.83a24.27,24.27,0,0,1-3,12.25l.05,0a69.57,69.57,0,0,1,33.53-14.28S584.46,164.22,571.86,158.18Z"/><path class="cls-5" d="M628.14,158.18c9.94-4.77,19.48-15.4,21.62-25.69s5.3-25.31,19.45-24.83c0,0-12.06,7.86-11.64,21.21.29,9.29,4.35,20.73-3,28.6s-14.27,15.21-14.27,23.83a24.27,24.27,0,0,0,3,12.25l-.05,0a69.57,69.57,0,0,0-33.53-14.28S615.54,164.22,628.14,158.18Z"/><path class="cls-5" d="M628.13,338.63c10,4.77,19.48,15.4,21.63,25.69s5.3,25.31,19.45,24.84c0,0-12.07-7.87-11.65-21.22.29-9.29,4.35-20.73-3-28.59s-14.26-15.22-14.26-23.84a24.2,24.2,0,0,1,3-12.24l-.06,0a69.49,69.49,0,0,1-33.52,14.28S615.54,332.6,628.13,338.63Z"/><path class="cls-5" d="M571.86,338.63c-10,4.77-19.48,15.4-21.63,25.69s-5.3,25.31-19.45,24.84c0,0,12.07-7.87,11.65-21.22-.29-9.29-4.35-20.73,3-28.59s14.26-15.22,14.26-23.84a24.2,24.2,0,0,0-3-12.24l.06,0a69.49,69.49,0,0,0,33.52,14.28S584.45,332.6,571.86,338.63Z"/><path class="cls-5" d="M557.88,192.7a719,719,0,0,0-60.4-50l-12.55-9.28L494.21,146a719,719,0,0,0,50,60.4,68.26,68.26,0,0,1,13.65-13.65Z"/><path class="cls-5" d="M642.12,304.23a718.89,718.89,0,0,0,60.4,50l12.55,9.29L705.79,351a720.49,720.49,0,0,0-50-60.39,70,70,0,0,1-6.34,7.31A71.21,71.21,0,0,1,642.12,304.23Z"/><path class="cls-5" d="M655.77,206.34a718.89,718.89,0,0,0,50-60.4l9.29-12.55-12.56,9.28a719.21,719.21,0,0,0-60.39,50,70.07,70.07,0,0,1,7.3,6.34A71.32,71.32,0,0,1,655.77,206.34Z"/><path class="cls-5" d="M544.23,290.59a717.15,717.15,0,0,0-50,60.39l-9.29,12.56,12.56-9.29a717.15,717.15,0,0,0,60.39-50,69.68,69.68,0,0,1-13.65-13.65Z"/><path class="cls-5" d="M690.22,220.27c4.77-10,15.4-19.48,25.7-21.62s25.3-5.31,24.83-19.46c0,0-7.87,12.07-21.22,11.65-9.29-.29-20.73-4.35-28.59,3s-15.21,14.27-23.83,14.27a24.22,24.22,0,0,1-12.25-3l0,0a69.47,69.47,0,0,1,14.28,33.53S684.19,232.87,690.22,220.27Z"/><path class="cls-5" d="M690.22,276.55c4.77,9.94,15.4,19.48,25.7,21.62s25.3,5.3,24.83,19.45c0,0-7.87-12.06-21.22-11.65-9.29.29-20.73,4.35-28.59-3s-15.21-14.27-23.83-14.27a24.22,24.22,0,0,0-12.25,3l0-.05a69.47,69.47,0,0,0,14.28-33.53S684.19,264,690.22,276.55Z"/><path class="cls-5" d="M509.77,276.54c-4.76,9.95-15.4,19.48-25.69,21.63s-25.31,5.3-24.83,19.45c0,0,7.86-12.07,21.21-11.65,9.3.29,20.73,4.35,28.6-3s15.21-14.27,23.83-14.27a24.21,24.21,0,0,1,12.25,3l0-.06a69.63,69.63,0,0,1-14.28-33.52S515.81,264,509.77,276.54Z"/><path class="cls-5" d="M509.77,220.27c-4.76-10-15.4-19.48-25.69-21.63s-25.31-5.3-24.83-19.45c0,0,7.86,12.06,21.21,11.65,9.3-.29,20.73-4.35,28.6,3s15.21,14.26,23.83,14.26a24.27,24.27,0,0,0,12.25-3l0,.06a69.59,69.59,0,0,0-14.28,33.52S515.81,232.86,509.77,220.27Z"/><path class="cls-5" d="M582.1,946.42a18.77,18.77,0,0,1-18.66-20.77c0-.46.11-1,.18-1.7a347.11,347.11,0,0,0,2-35.75c0-4.57.39-9.18,1.44-11.86,2.63-6.7,12.2-29.18,12.2-29.18l15.91-19.75a10.25,10.25,0,0,1,4.44-3.19c5.73-2.12,18.87-7,20.55-8.15,2.15-1.44,3.1,9.41-3.35,14s-11.24,8.2-11.24,8.2L594.8,851s19.85-16.71,25.12-19,18-13.24,18-13.24,17.86-21.21,21.93-23.79,11.24-2.09,1.67,9.86-12.67,20.1-14.59,21.53-15.06,15.45-15.06,15.45h0l27.26-25.73s14.11-19.86,22.72-17.46-7.61,14.83-9.28,19.73c0,0-3.15,11.16-6,15.8a49.4,49.4,0,0,0-5.27,12.78c-.47,2.15-4.54,7.41-4.54,7.41s2.39,5.74-.72,10.77-13.39,20.57-13.39,20.57l-34.92,27.74a71.83,71.83,0,0,0-6.65,18.14,18.9,18.9,0,0,1-18.36,14.87Z"/><line class="cls-5" x1="586.67" y1="858.16" x2="594.8" y2="850.99"/><line class="cls-5" x1="642.4" y1="870.06" x2="656.75" y2="854.33"/><polyline class="cls-5" points="639.77 855.38 661.05 835.01 672.58 818.34"/><path class="cls-5" d="M132.38,980.75a57.73,57.73,0,0,1,91-47.19,67.19,67.19,0,1,0,0,94.37,57.73,57.73,0,0,1-91-47.18Z"/><path class="cls-5" d="M1048.25,979.42c0-30.38-22.15-55-49.47-55A45.07,45.07,0,0,0,981.15,928a67.18,67.18,0,1,1,0,102.8,45.07,45.07,0,0,0,17.63,3.61C1026.1,1034.43,1048.25,1009.8,1048.25,979.42Z"/><line class="cls-5" x1="904.59" y1="699.51" x2="935.74" y2="699.51"/><line class="cls-5" x1="1065.53" y1="699.51" x2="1096.68" y2="699.51"/><line class="cls-5" x1="1000.63" y1="603.47" x2="1000.63" y2="629.2"/><line class="cls-5" x1="1000.63" y1="769.82" x2="1000.63" y2="795.56"/><line class="cls-5" x1="937.12" y1="636" x2="944.24" y2="643.12"/><line class="cls-5" x1="1064.24" y1="763.12" x2="1057.13" y2="756.01"/><line class="cls-5" x1="1064.24" y1="636" x2="1057.13" y2="643.12"/><line class="cls-5" x1="937.12" y1="763.12" x2="944.24" y2="756.01"/><polygon class="cls-5" points="1000.63 679.77 1017.66 635.96 1010.5 682.42 1047.16 652.99 1017.73 689.64 1064.19 682.48 1020.37 699.51 1064.19 716.55 1017.73 709.38 1047.16 746.04 1010.5 716.61 1017.66 763.07 1000.63 719.25 983.6 763.07 990.76 716.61 954.1 746.04 983.54 709.38 937.07 716.55 980.89 699.51 937.07 682.48 983.54 689.64 954.1 652.99 990.76 682.42 983.6 635.96 1000.63 679.77"/><line class="cls-5" x1="103.32" y1="699.46" x2="153.16" y2="699.46"/><line class="cls-5" x1="175.78" y1="699.46" x2="225.62" y2="699.46"/><line class="cls-5" x1="164.47" y1="638.31" x2="164.47" y2="684.69"/><line class="cls-5" x1="164.47" y1="714.22" x2="164.47" y2="760.6"/><line class="cls-5" x1="131.85" y1="666.84" x2="142.1" y2="677.09"/><line class="cls-5" x1="124.04" y1="659.02" x2="128.56" y2="663.55"/><line class="cls-5" x1="197.15" y1="732.13" x2="186.9" y2="721.88"/><line class="cls-5" x1="204.97" y1="739.95" x2="200.44" y2="735.42"/><line class="cls-5" x1="142.1" y1="721.82" x2="131.37" y2="732.56"/><line class="cls-5" x1="197.15" y1="666.84" x2="186.9" y2="677.09"/><line class="cls-5" x1="204.97" y1="659.02" x2="200.44" y2="663.55"/><line class="cls-5" x1="124.04" y1="739.95" x2="128.56" y2="735.42"/><line class="cls-5" x1="121.4" y1="681.11" x2="135.37" y2="687.06"/><line class="cls-5" x1="193.57" y1="711.85" x2="207.54" y2="717.8"/><line class="cls-5" x1="182.82" y1="656.39" x2="176.87" y2="670.36"/><line class="cls-5" x1="152.07" y1="728.55" x2="146.12" y2="742.52"/><line class="cls-5" x1="146.99" y1="656.03" x2="152.66" y2="670.11"/><line class="cls-5" x1="176.28" y1="728.8" x2="181.95" y2="742.88"/><line class="cls-5" x1="207.9" y1="681.98" x2="193.81" y2="687.65"/><line class="cls-5" x1="135.13" y1="711.27" x2="121.04" y2="716.93"/><ellipse class="cls-5" cx="164.47" cy="699.46" rx="30.89" ry="35"/><path class="cls-5" d="M864.85,828.67c-.43-7.22-6.36-12-8.93-12.68-25-7-40.58-5.09-47.55-6.63-2.16-.48-11.12-6.48-26.11-9.11s-46.29-7.93-46.43-9.13-.8-7.21,14.81-7.21a275.07,275.07,0,0,1,29.75,1.74l-31.08-30.42s-7.47-6.93-1.87-8.8,27.48,17.87,27.48,17.87l-3.07-18s-.13-3.61,2.8-3.87,5.91,4,8.27,13.6c.84,3.42,1.87,8.54,1.87,8.54l7,10.76L804,779.78l-10.09-12-2-14.94s-.93-5.47,2.8-5.47,7.74,16.54,7.74,16.54l8.94,10.41,8,2.8s21.13-3.39,29.91-4c19.61-1.39,32.53,4,40.49,10.92,19.68,17.09,21.34,62.62,22.15,81.41a23.15,23.15,0,0,1-23.13,24.13h0A23.14,23.14,0,0,1,865.66,865Z"/><polyline class="cls-5" points="774.92 764.3 784.26 772.57 802.13 779.11"/><path class="cls-5" d="M834.36,801.5s-13-4.53-25.21-5.71c-8.09-.79-27,1.93-27,1.93s-4.44-1.65-4.3-6,6.25-8.25,15.72-9.76,19.21-3.81,25.81-4.82"/></g></svg>