<svg id="Graphic_elements" data-name="Graphic elements" xmlns="http://www.w3.org/2000/svg" xmlns:xlink="http://www.w3.org/1999/xlink" viewBox="0 0 1229.57 907.81"><defs><style>.cls-1{clip-path:url(#clip-path);}.cls-2{fill:none;stroke:#b5815e;stroke-linecap:round;stroke-linejoin:round;stroke-width:1.5px;}</style><clipPath id="clip-path" transform="translate(12.61 29.01)"/></defs><g class="cls-1"><g id="Graphic_elements-2" data-name="Graphic elements"><path class="cls-2" d="M550.08,589.65a15.28,15.28,0,0,0,13.85,21.74h0a15.25,15.25,0,0,0,15.27-15.34c-.05-6.53.25-12.7,1.56-12.81,7.3-.59,19.6-1.74,22.87-1.74h15.45a12.08,12.08,0,0,0,8-3l24.15-21.26,17.67-20.07s.3-3.5-5.39-1.1-11.39,9.39-11.39,9.39.6-8.09,0-9.29-5.49-11.48-7.58-12.58-4,4.79-2.6,8.78,3.09,8.49,3.09,8.49l-2.09,11.39-1.7-5.8s1.8-1.09,1.8-2.49a3.44,3.44,0,0,0-3-3.4,7.32,7.32,0,0,0-1.47-.25c-.4-.82-2.42-4.88-4.12-6.14-1.9-1.4-7.89-7.39-9.19-7.49s-2.29,2-.6,6.49a20.63,20.63,0,0,0,5.4,7.59l-2.4.4s-6.89-8.59-8.69-8.59-2.89,2.8-1.3,5.6,2.4,4.39,2.4,4.39-14.88,2.1-18.77,2.1-17.28,4-20.57,6.29-13.76,8.57-16.28,11.28S555.64,577.76,550.08,589.65Zm81.18-39.25h1.65s.34,2.21.6,3.54-2.25,1.95-2.25,1.95.56-2,.6-2.4A26.57,26.57,0,0,0,631.26,550.4Zm-18,3.54,10.2-2,.29,3-1.9,2.55A18.92,18.92,0,0,1,613.29,553.94Z" transform="translate(12.61 29.01)"/><path class="cls-2" d="M620,542.56l3,4.49.75,7.94-5.7,7.64s-27.1-3.24-38.31,4.79" transform="translate(12.61 29.01)"/><path class="cls-2" d="M625,572.22s6.89-16.63,6.89-18.73-2.8-10.59-4.24-12.33" transform="translate(12.61 29.01)"/><path class="cls-2" d="M638.6,540.46l2.6,6,1.7,5.8.5,1.6a3.39,3.39,0,0,1-.33,2.73l-6.56,10.84" transform="translate(12.61 29.01)"/><line class="cls-2" x1="664.7" y1="574.47" x2="664.7" y2="581.61"/><polyline class="cls-2" points="642.63 569.77 644.48 572.4 645.53 579.41"/><path class="cls-2" d="M177.35,459.28c-.4-7.58-1.55-22.33-4.78-30.52h0c-3.23,8.19-4.39,22.94-4.78,30.52-7,.36-26.38,4.78-26.38,4.78,8.19,3.23,18.8,4.38,26.38,4.78.39,7.58,1.55,22.33,4.78,30.52h0c3.23-8.19,4.38-22.94,4.78-30.52,7.58-.4,18.19-1.55,26.38-4.78C203.73,464.06,184.93,459.67,177.35,459.28Z" transform="translate(12.61 29.01)"/><line class="cls-2" x1="130.48" y1="493.07" x2="148.22" y2="493.07"/><line class="cls-2" x1="222.14" y1="493.07" x2="239.88" y2="493.07"/><line class="cls-2" x1="185.18" y1="438.37" x2="185.18" y2="453.03"/><line class="cls-2" x1="185.18" y1="533.11" x2="185.18" y2="547.77"/><line class="cls-2" x1="156.01" y1="463.89" x2="165.18" y2="473.06"/><line class="cls-2" x1="149.01" y1="456.9" x2="153.06" y2="460.95"/><line class="cls-2" x1="214.42" y1="522.3" x2="205.25" y2="513.13"/><line class="cls-2" x1="221.41" y1="529.3" x2="217.36" y2="525.25"/><line class="cls-2" x1="165.18" y1="513.08" x2="155.57" y2="522.68"/><line class="cls-2" x1="214.42" y1="463.89" x2="205.25" y2="473.06"/><line class="cls-2" x1="221.41" y1="456.9" x2="217.36" y2="460.95"/><line class="cls-2" x1="149.01" y1="529.3" x2="153.06" y2="525.25"/><line class="cls-2" x1="146.66" y1="476.66" x2="159.15" y2="481.98"/><line class="cls-2" x1="211.21" y1="504.16" x2="223.71" y2="509.48"/><line class="cls-2" x1="201.59" y1="454.55" x2="196.27" y2="467.04"/><line class="cls-2" x1="174.09" y1="519.1" x2="168.77" y2="531.6"/><line class="cls-2" x1="169.55" y1="454.22" x2="174.62" y2="466.82"/><line class="cls-2" x1="195.75" y1="519.32" x2="200.82" y2="531.92"/><line class="cls-2" x1="224.03" y1="477.44" x2="211.43" y2="482.51"/><line class="cls-2" x1="158.93" y1="503.64" x2="146.34" y2="508.71"/><circle class="cls-2" cx="1009.81" cy="256.19" r="30.61"/><line class="cls-2" x1="1009.81" y1="217.63" x2="1009.81" y2="178.54"/><line class="cls-2" x1="1009.81" y1="333.84" x2="1009.81" y2="294.75"/><line class="cls-2" x1="971.25" y1="256.19" x2="932.16" y2="256.19"/><line class="cls-2" x1="1087.46" y1="256.19" x2="1048.37" y2="256.19"/><line class="cls-2" x1="982.55" y1="228.92" x2="963.03" y2="209.4"/><line class="cls-2" x1="1056.6" y1="302.97" x2="1037.08" y2="283.45"/><line class="cls-2" x1="982.55" y1="283.45" x2="963.02" y2="302.97"/><line class="cls-2" x1="1056.6" y1="209.4" x2="1037.08" y2="228.92"/><line class="cls-2" x1="995.42" y1="220.42" x2="985.11" y2="194.81"/><line class="cls-2" x1="1034.51" y1="317.57" x2="1024.21" y2="291.96"/><line class="cls-2" x1="974.04" y1="270.58" x2="948.43" y2="280.89"/><line class="cls-2" x1="1071.19" y1="231.49" x2="1045.58" y2="241.79"/><line class="cls-2" x1="974.34" y1="241.07" x2="948.94" y2="230.25"/><line class="cls-2" x1="1070.68" y1="282.13" x2="1045.28" y2="271.3"/><line class="cls-2" x1="994.69" y1="291.66" x2="983.87" y2="317.06"/><line class="cls-2" x1="1035.75" y1="195.32" x2="1024.93" y2="220.72"/><line class="cls-2" x1="978.33" y1="233.93" x2="966.53" y2="225.58"/><line class="cls-2" x1="1053.1" y1="286.79" x2="1041.29" y2="278.45"/><line class="cls-2" x1="987.55" y1="287.67" x2="979.2" y2="299.47"/><line class="cls-2" x1="1040.42" y1="212.9" x2="1032.07" y2="224.7"/><line class="cls-2" x1="972.06" y1="248.36" x2="957.9" y2="245.42"/><line class="cls-2" x1="1061.72" y1="266.95" x2="1047.57" y2="264.02"/><line class="cls-2" x1="1001.98" y1="293.94" x2="999.05" y2="308.1"/><line class="cls-2" x1="1020.58" y1="204.28" x2="1017.64" y2="218.43"/><line class="cls-2" x1="971.81" y1="262.71" x2="957.56" y2="265.15"/><line class="cls-2" x1="1062.06" y1="247.22" x2="1047.81" y2="249.67"/><line class="cls-2" x1="1016.33" y1="294.19" x2="1018.78" y2="308.44"/><line class="cls-2" x1="1000.85" y1="203.94" x2="1003.29" y2="218.18"/><line class="cls-2" x1="988.73" y1="223.9" x2="980.82" y2="211.8"/><line class="cls-2" x1="1038.8" y1="300.57" x2="1030.89" y2="288.47"/><line class="cls-2" x1="977.53" y1="277.27" x2="965.42" y2="285.17"/><line class="cls-2" x1="1054.2" y1="227.2" x2="1042.1" y2="235.1"/><path class="cls-2" d="M977.51,227.18a26.3,26.3,0,0,1,41.47-21.5,30.61,30.61,0,1,0,0,43,26.3,26.3,0,0,1-41.47-21.49Z" transform="translate(12.61 29.01)"/><path class="cls-2" d="M905.08,667.41c1.36-3.07-3.87-9.1-3.87-9.1l.85-1.48c.84-1.48-1.53-3.07-1.53-3.07.91-.91,1-1.59-.12-3s.35-3.64.35-3.64c3.75,0,5.11-.79,5.57-1.81s-3-9.9-5.83-13.08-2.7-6.14-2.7-6.14a11.75,11.75,0,0,0,2.5-3.19,4,4,0,0,0,.18-2.58c-1.9-7.37,0-15.23,5.68-20.25a55.9,55.9,0,0,1,69.08-3.63,65.08,65.08,0,1,0,0,91.42c-1.41,1-2.88,1.92-4.38,2.79l4.38-2.79C918.73,707.94,903.71,670.48,905.08,667.41Z" transform="translate(12.61 29.01)"/><path class="cls-2" d="M893.54,625.53s-.23,2.59-1.77,3.1-8.33,2.39-8.33,2.39,5.94,2.21,8,2.21,1.69,2.43,1.69,2.43" transform="translate(12.61 29.01)"/><path class="cls-2" d="M892,653.94c6.55,2.15,7.82.82,8.19.3l.35-.48" transform="translate(12.61 29.01)"/><path class="cls-2" d="M893.31,631c0,1.24-.63,2.23-1.41,2.23s-1.41-1-1.41-2.23.63-2.22,1.41-2.22S893.31,629.73,893.31,631Z" transform="translate(12.61 29.01)"/><path class="cls-2" d="M894.87,643.87s-1.62,4,2.7,3.86" transform="translate(12.61 29.01)"/><path class="cls-2" d="M880.94,623.7a18.32,18.32,0,0,1,4.89-2.12c6.38-2,8.59.79,8.59.79" transform="translate(12.61 29.01)"/><path class="cls-2" d="M900.41,650.8l-.73,1.37a1.78,1.78,0,0,0-1.71,0,8.4,8.4,0,0,0-1.71.93" transform="translate(12.61 29.01)"/><path class="cls-2" d="M893.54,656.09s3,2.45,5,2.33" transform="translate(12.61 29.01)"/><path class="cls-2" d="M890.49,626.8a28.08,28.08,0,0,0-4.77,1.11c-2.22.76-5.63,1.7-5.63,1.7" transform="translate(12.61 29.01)"/><path class="cls-2" d="M889.55,650.8a5.84,5.84,0,0,0-1.06,4.32" transform="translate(12.61 29.01)"/><path class="cls-2" d="M247.52,210.25a4.28,4.28,0,0,1-1.89-1.35c-.61-.9-2.84-1.89-4.73-1.89s-4.13,1-4.73,1.89a4.28,4.28,0,0,1-1.89,1.35" transform="translate(12.61 29.01)"/><path class="cls-2" d="M242.94,209.05a2,2,0,1,1-2-2A2,2,0,0,1,242.94,209.05Z" transform="translate(12.61 29.01)"/><path class="cls-2" d="M233.65,208.25a37.49,37.49,0,0,1,3.65-2.91,8.51,8.51,0,0,1,5.64-.4c1.31.61,3.74,3.31,3.74,3.31" transform="translate(12.61 29.01)"/><path class="cls-2" d="M232.57,220.67a3.74,3.74,0,0,1,1.22,3.17c-.34,1.83-2.16,1.63-3.45,1.69s-2,1.69-3.37,1.62-2.1-1.55-3.38-1.62-3.11.14-3.44-1.69a3.72,3.72,0,0,1,1.21-3.17" transform="translate(12.61 29.01)"/><path class="cls-2" d="M225.41,224.32s-1.35-.61-.81-3,1.29-1.89,1.29-5.74V207" transform="translate(12.61 29.01)"/><path class="cls-2" d="M234.6,232.45a21.7,21.7,0,0,1-2.77.15c-1.08,0-1.56-.35-2.37-.32-1.62.07-1.55.61-2.49.64s-.87-.57-2.49-.64c-.82,0-1.29.27-2.38.32a21.49,21.49,0,0,1-2.76-.15" transform="translate(12.61 29.01)"/><path class="cls-2" d="M231.09,231.27s-1.69-.88-2.17-.74a12.41,12.41,0,0,0-1.95,1.22,12.6,12.6,0,0,0-2-1.22c-.47-.14-2.16.74-2.16.74" transform="translate(12.61 29.01)"/><path class="cls-2" d="M232.1,233.57s-3,2-5.13,2-5.14-2-5.14-2" transform="translate(12.61 29.01)"/><path class="cls-2" d="M232.1,201.16s5.74-5.68,16,0" transform="translate(12.61 29.01)"/><path class="cls-2" d="M207.43,210.25a4.28,4.28,0,0,0,1.89-1.35c.6-.9,2.84-1.89,4.73-1.89s4.12,1,4.72,1.89a4.28,4.28,0,0,0,1.89,1.35" transform="translate(12.61 29.01)"/><path class="cls-2" d="M212,209.05a2,2,0,1,0,2.05-2A2.05,2.05,0,0,0,212,209.05Z" transform="translate(12.61 29.01)"/><path class="cls-2" d="M221.29,208.25a37,37,0,0,0-3.64-2.91,8.54,8.54,0,0,0-5.65-.4c-1.31.61-3.74,3.31-3.74,3.31" transform="translate(12.61 29.01)"/><path class="cls-2" d="M222.85,201.16s-5.74-5.68-16,0" transform="translate(12.61 29.01)"/><circle class="cls-2" cx="240.08" cy="243.68" r="33.34"/><path class="cls-2" d="M232.08,181.65a344.21,344.21,0,0,0-3.5-37.25L227.47,137l-1.1,7.37a341.71,341.71,0,0,0-3.5,37.25,32.3,32.3,0,0,1,9.21,0Z" transform="translate(12.61 29.01)"/><path class="cls-2" d="M222.87,247.71a344.69,344.69,0,0,0,3.5,37.25l1.11,7.37,1.1-7.37a342.17,342.17,0,0,0,3.5-37.25,33.29,33.29,0,0,1-9.21,0Z" transform="translate(12.61 29.01)"/><path class="cls-2" d="M260.5,219.28a342.12,342.12,0,0,0,37.26-3.5l7.36-1.11-7.36-1.1a342.12,342.12,0,0,0-37.26-3.5,32.3,32.3,0,0,1,0,9.21Z" transform="translate(12.61 29.01)"/><path class="cls-2" d="M194.45,210.07a344.64,344.64,0,0,0-37.26,3.51l-7.37,1.1,7.37,1.1a344.64,344.64,0,0,0,37.26,3.51,32.37,32.37,0,0,1,0-9.22Z" transform="translate(12.61 29.01)"/><path class="cls-2" d="M214.05,171.6c-4.75-2.28-9.3-7.35-10.32-12.26s-2.53-12.08-9.28-11.85c0,0,5.75,3.75,5.56,10.12-.14,4.44-2.08,9.89,1.45,13.65s6.8,7.26,6.8,11.37a11.57,11.57,0,0,1-1.41,5.84h0a33.16,33.16,0,0,1,16-6.81S220.06,174.48,214.05,171.6Z" transform="translate(12.61 29.01)"/><path class="cls-2" d="M240.9,171.6c4.75-2.28,9.3-7.35,10.32-12.26s2.53-12.08,9.28-11.85c0,0-5.76,3.75-5.56,10.12.14,4.44,2.08,9.89-1.45,13.65s-6.8,7.26-6.8,11.37a11.57,11.57,0,0,0,1.41,5.84h0a33.16,33.16,0,0,0-16-6.81S234.89,174.48,240.9,171.6Z" transform="translate(12.61 29.01)"/><path class="cls-2" d="M240.9,257.7c4.74,2.28,9.29,7.35,10.32,12.26s2.53,12.08,9.28,11.85c0,0-5.76-3.75-5.56-10.12.14-4.44,2.08-9.89-1.45-13.65s-6.81-7.26-6.81-11.37a11.51,11.51,0,0,1,1.42-5.84h0a33.2,33.2,0,0,1-16,6.81S234.89,254.82,240.9,257.7Z" transform="translate(12.61 29.01)"/><path class="cls-2" d="M214.05,257.7c-4.75,2.28-9.3,7.35-10.32,12.26s-2.53,12.08-9.28,11.85c0,0,5.75-3.75,5.55-10.12-.13-4.44-2.07-9.89,1.45-13.65s6.81-7.26,6.81-11.37a11.51,11.51,0,0,0-1.42-5.84h0a33.16,33.16,0,0,0,16,6.81S220.06,254.82,214.05,257.7Z" transform="translate(12.61 29.01)"/><path class="cls-2" d="M207.37,188.07a342,342,0,0,0-28.81-23.87l-6-4.43,4.43,6a341.73,341.73,0,0,0,23.86,28.82,34.1,34.1,0,0,1,3-3.49A32.86,32.86,0,0,1,207.37,188.07Z" transform="translate(12.61 29.01)"/><path class="cls-2" d="M247.57,241.29a343.67,343.67,0,0,0,28.82,23.86l6,4.43-4.43-6a341.73,341.73,0,0,0-23.86-28.82,33.07,33.07,0,0,1-3,3.49A32.09,32.09,0,0,1,247.57,241.29Z" transform="translate(12.61 29.01)"/><path class="cls-2" d="M254.09,194.58A345.62,345.62,0,0,0,278,165.76l4.43-6-6,4.43a343.67,343.67,0,0,0-28.82,23.86,35.38,35.38,0,0,1,3.49,3A34.26,34.26,0,0,1,254.09,194.58Z" transform="translate(12.61 29.01)"/><path class="cls-2" d="M200.86,234.78A343.87,343.87,0,0,0,177,263.59l-4.43,6,6-4.43a343.79,343.79,0,0,0,28.82-23.87,33.14,33.14,0,0,1-6.52-6.51Z" transform="translate(12.61 29.01)"/><path class="cls-2" d="M270.53,201.22c2.27-4.74,7.34-9.29,12.26-10.31s12.07-2.53,11.84-9.29c0,0-3.75,5.76-10.12,5.56-4.43-.14-9.89-2.07-13.64,1.45s-7.26,6.81-11.37,6.81a11.57,11.57,0,0,1-5.85-1.42v0a33.18,33.18,0,0,1,6.82,16S267.65,207.24,270.53,201.22Z" transform="translate(12.61 29.01)"/><path class="cls-2" d="M270.53,228.08c2.27,4.74,7.34,9.29,12.26,10.32s12.07,2.53,11.84,9.28c0,0-3.75-5.76-10.12-5.56-4.43.14-9.89,2.08-13.64-1.45s-7.26-6.81-11.37-6.81a11.57,11.57,0,0,0-5.85,1.42v0a33.14,33.14,0,0,0,6.82-16S267.65,222.07,270.53,228.08Z" transform="translate(12.61 29.01)"/><path class="cls-2" d="M184.42,228.07c-2.27,4.75-7.35,9.3-12.26,10.32s-12.07,2.53-11.85,9.29c0,0,3.76-5.76,10.13-5.56,4.43.14,9.89,2.07,13.64-1.45s7.26-6.81,11.37-6.81a11.57,11.57,0,0,1,5.85,1.42v0a33.18,33.18,0,0,1-6.82-16S187.3,222.06,184.42,228.07Z" transform="translate(12.61 29.01)"/><path class="cls-2" d="M184.42,201.22c-2.27-4.74-7.35-9.29-12.26-10.32s-12.07-2.53-11.85-9.28c0,0,3.76,5.76,10.13,5.56,4.43-.14,9.89-2.08,13.64,1.45s7.26,6.81,11.37,6.81A11.57,11.57,0,0,0,201.3,194v0a33.14,33.14,0,0,0-6.82,16S187.3,207.23,184.42,201.22Z" transform="translate(12.61 29.01)"/><path class="cls-2" d="M584.69,117.58a12.65,12.65,0,0,0-12.58,14c0,.31.07.7.12,1.15a236.6,236.6,0,0,1,1.35,24.11c0,3.08.26,6.19,1,8,1.77,4.52,8.23,19.68,8.23,19.68l10.73,13.32a6.83,6.83,0,0,0,3,2.15c3.86,1.43,12.73,4.75,13.86,5.5,1.45,1,2.09-6.35-2.26-9.46s-7.58-5.53-7.58-5.53l-7.26-8.56s13.39,11.26,16.94,12.81,12.14,8.93,12.14,8.93,12,14.31,14.79,16,7.58,1.42,1.13-6.65-8.55-13.55-9.84-14.51-10.16-10.42-10.16-10.42h0l18.39,17.35s9.51,13.39,15.32,11.78-5.13-10-6.26-13.31c0,0-2.13-7.53-4.06-10.66a32.76,32.76,0,0,1-3.55-8.62c-.32-1.45-3.07-5-3.07-5s1.62-3.87-.48-7.25-9-13.88-9-13.88L602,139.83a48.55,48.55,0,0,1-4.49-12.23,12.73,12.73,0,0,0-12.38-10Z" transform="translate(12.61 29.01)"/><line class="cls-2" x1="600.39" y1="206.11" x2="605.87" y2="210.94"/><line class="cls-2" x1="637.97" y1="198.08" x2="647.65" y2="208.69"/><polyline class="cls-2" points="636.2 207.98 650.55 221.72 658.32 232.96"/><path class="cls-2" d="M278.88,672a27.55,27.55,0,0,1-22.51-43.44,32.06,32.06,0,1,0,45,0A27.55,27.55,0,0,1,278.88,672Z" transform="translate(12.61 29.01)"/><line class="cls-2" x1="1045.87" y1="481.08" x2="1069.65" y2="481.08"/><line class="cls-2" x1="1080.45" y1="481.08" x2="1104.23" y2="481.08"/><line class="cls-2" x1="1075.05" y1="451.91" x2="1075.05" y2="474.04"/><line class="cls-2" x1="1075.05" y1="488.13" x2="1075.05" y2="510.26"/><line class="cls-2" x1="1059.49" y1="465.52" x2="1064.38" y2="470.41"/><line class="cls-2" x1="1055.76" y1="461.79" x2="1057.92" y2="463.95"/><line class="cls-2" x1="1090.64" y1="496.68" x2="1085.75" y2="491.78"/><line class="cls-2" x1="1094.37" y1="500.41" x2="1092.21" y2="498.24"/><line class="cls-2" x1="1064.38" y1="491.75" x2="1059.26" y2="496.88"/><line class="cls-2" x1="1090.64" y1="465.52" x2="1085.75" y2="470.41"/><line class="cls-2" x1="1094.37" y1="461.79" x2="1092.21" y2="463.95"/><line class="cls-2" x1="1055.76" y1="500.41" x2="1057.92" y2="498.24"/><line class="cls-2" x1="1054.5" y1="472.33" x2="1061.17" y2="475.17"/><line class="cls-2" x1="1088.93" y1="487" x2="1095.6" y2="489.84"/><line class="cls-2" x1="1083.8" y1="460.53" x2="1080.97" y2="467.2"/><line class="cls-2" x1="1069.13" y1="494.97" x2="1066.3" y2="501.63"/><line class="cls-2" x1="1066.71" y1="460.36" x2="1069.41" y2="467.08"/><line class="cls-2" x1="1080.69" y1="495.08" x2="1083.39" y2="501.8"/><line class="cls-2" x1="1095.77" y1="472.74" x2="1089.05" y2="475.45"/><line class="cls-2" x1="1061.05" y1="486.72" x2="1054.33" y2="489.42"/><ellipse class="cls-2" cx="1075.05" cy="481.08" rx="14.74" ry="16.7"/></g><path class="cls-2" d="M1141.84,719.25a15.86,15.86,0,0,1-12.29-12.69,28.42,28.42,0,0,0-1.37-5.21h0a28.58,28.58,0,0,0-1.36,5.22,15.91,15.91,0,0,1-12.34,12.71l-2.63.57a27.16,27.16,0,0,0,3.41,1.08,15.85,15.85,0,0,1,11.62,12.56,27.62,27.62,0,0,0,1.3,4.86h0a26.77,26.77,0,0,0,1.3-4.86,15.87,15.87,0,0,1,11.62-12.56,26.65,26.65,0,0,0,3.41-1.08Z" transform="translate(12.61 29.01)"/><path class="cls-2" d="M414.52,367.56a15.9,15.9,0,0,1-12.29-12.69,28.36,28.36,0,0,0-1.36-5.22h0a28.7,28.7,0,0,0-1.36,5.23,15.91,15.91,0,0,1-12.34,12.7c-1.57.33-2.63.58-2.63.58a28.33,28.33,0,0,0,3.41,1.07,15.89,15.89,0,0,1,11.62,12.57,28.1,28.1,0,0,0,1.3,4.86h0a28.1,28.1,0,0,0,1.3-4.86,15.89,15.89,0,0,1,11.62-12.57,28.33,28.33,0,0,0,3.41-1.07S416.12,367.9,414.52,367.56Z" transform="translate(12.61 29.01)"/><path class="cls-2" d="M-1.91,316.87a24,24,0,0,1,37.83-19.61,27.92,27.92,0,1,0,0,39.22A24,24,0,0,1-1.91,316.87Z" transform="translate(12.61 29.01)"/><polygon class="cls-2" points="1228.82 109.57 1207.15 116.84 1202.61 94.44 1198.07 116.84 1176.4 109.57 1193.53 124.7 1176.4 139.83 1198.07 132.56 1202.61 154.97 1207.15 132.56 1228.82 139.83 1211.69 124.7 1228.82 109.57"/><line class="cls-2" x1="400.92" y1="60.38" x2="407.2" y2="66.66"/><line class="cls-2" x1="371.13" y1="30.59" x2="377.41" y2="36.87"/><line class="cls-2" x1="377.41" y1="60.38" x2="371.13" y2="66.66"/><line class="cls-2" x1="407.2" y1="30.59" x2="400.92" y2="36.87"/><path class="cls-2" d="M400.87,19.61s-6.55-1.53-12.66-2.63a10.48,10.48,0,0,1-4.84-2.27,27.55,27.55,0,0,0,3.26-5.17h0a26.71,26.71,0,0,0-5.09,3.19,10.46,10.46,0,0,1-1.88-5c-.55-5.46-1.5-11.62-3.11-15.69C374.94-3.86,374,2.31,373.44,7.77a10.47,10.47,0,0,1-2.1,5.29c-2.35-1.68-4.86-3.52-4.86-3.52a31.69,31.69,0,0,0,3.34,5.11A10.4,10.4,0,0,1,364.89,17c-6.06,1.11-12.66,2.61-12.66,2.61a54.39,54.39,0,0,0,12.09,2.94,10.78,10.78,0,0,1,5.21,2.23,26.41,26.41,0,0,0-3,4.91,26.71,26.71,0,0,0,4.88-3A10.54,10.54,0,0,1,373.49,32c.56,5.34,1.5,11.25,3.06,15.2,1.56-3.95,2.5-9.86,3.06-15.2a10.51,10.51,0,0,1,2.2-5.4,29.38,29.38,0,0,0,4.82,3.13s-1.73-2.37-3.36-4.66a10.72,10.72,0,0,1,5.51-2.48A54.39,54.39,0,0,0,400.87,19.61Z" transform="translate(12.61 29.01)"/><line class="cls-2" x1="839.76" y1="485.85" x2="846.04" y2="492.13"/><line class="cls-2" x1="809.97" y1="456.06" x2="816.25" y2="462.34"/><line class="cls-2" x1="816.25" y1="485.85" x2="809.97" y2="492.13"/><line class="cls-2" x1="846.04" y1="456.06" x2="839.76" y2="462.34"/><path class="cls-2" d="M839.72,445.08s-6.56-1.53-12.67-2.63a10.48,10.48,0,0,1-4.84-2.27,27.55,27.55,0,0,0,3.26-5.17h0a27,27,0,0,0-5.09,3.19,10.35,10.35,0,0,1-1.87-5c-.56-5.46-1.51-11.62-3.12-15.69-1.6,4.08-2.55,10.25-3.11,15.71a10.38,10.38,0,0,1-2.1,5.29c-2.35-1.68-4.86-3.52-4.86-3.52a31.14,31.14,0,0,0,3.35,5.11,10.43,10.43,0,0,1-4.94,2.35c-6.05,1.11-12.66,2.61-12.66,2.61A54.66,54.66,0,0,0,803.16,448a10.74,10.74,0,0,1,5.21,2.23,27,27,0,0,0-3,4.91,26.71,26.71,0,0,0,4.88-3,10.45,10.45,0,0,1,2.13,5.31c.57,5.34,1.51,11.25,3.06,15.2,1.56-3.95,2.5-9.86,3.07-15.2a10.5,10.5,0,0,1,2.19-5.4,29.38,29.38,0,0,0,4.82,3.13s-1.73-2.37-3.36-4.66a10.75,10.75,0,0,1,5.52-2.48A54.66,54.66,0,0,0,839.72,445.08Z" transform="translate(12.61 29.01)"/><path class="cls-2" d="M840.56,7.86c0-16.34-11.91-29.58-26.6-29.58a24.15,24.15,0,0,0-9.47,1.94,36,36,0,0,1,23.25-8.48,36.12,36.12,0,1,1,0,72.23,36,36,0,0,1-23.25-8.48A24.15,24.15,0,0,0,814,37.43C828.65,37.43,840.56,24.19,840.56,7.86Z" transform="translate(12.61 29.01)"/><line class="cls-2" x1="82.82" y1="827.85" x2="99.57" y2="827.85"/><line class="cls-2" x1="169.35" y1="827.85" x2="186.09" y2="827.85"/><line class="cls-2" x1="134.46" y1="776.22" x2="134.46" y2="790.05"/><line class="cls-2" x1="134.46" y1="865.65" x2="134.46" y2="879.49"/><line class="cls-2" x1="100.31" y1="793.71" x2="104.14" y2="797.53"/><line class="cls-2" x1="168.66" y1="862.05" x2="164.83" y2="858.22"/><line class="cls-2" x1="168.66" y1="793.71" x2="164.83" y2="797.53"/><line class="cls-2" x1="100.31" y1="862.05" x2="104.14" y2="858.22"/><polygon class="cls-2" points="134.46 817.24 143.61 793.68 139.76 818.66 159.47 802.84 143.65 822.54 168.63 818.7 145.07 827.85 168.63 837.01 143.65 833.16 159.47 852.87 139.76 837.04 143.61 862.02 134.46 838.46 125.3 862.02 129.15 837.04 109.44 852.87 125.27 833.16 100.29 837.01 123.84 827.85 100.29 818.7 125.27 822.54 109.44 802.84 129.15 818.66 125.3 793.68 134.46 817.24"/><circle class="cls-2" cx="612.61" cy="839.43" r="26.66"/><line class="cls-2" x1="612.61" y1="805.85" x2="612.61" y2="771.8"/><line class="cls-2" x1="612.61" y1="907.06" x2="612.61" y2="873.01"/><line class="cls-2" x1="579.03" y1="839.43" x2="544.98" y2="839.43"/><line class="cls-2" x1="680.24" y1="839.43" x2="646.19" y2="839.43"/><line class="cls-2" x1="588.87" y1="815.68" x2="571.86" y2="798.68"/><line class="cls-2" x1="653.36" y1="880.18" x2="636.36" y2="863.18"/><line class="cls-2" x1="588.87" y1="863.18" x2="571.86" y2="880.18"/><line class="cls-2" x1="653.36" y1="798.68" x2="636.36" y2="815.68"/><line class="cls-2" x1="600.08" y1="808.28" x2="591.1" y2="785.97"/><line class="cls-2" x1="634.12" y1="892.89" x2="625.15" y2="870.59"/><line class="cls-2" x1="581.46" y1="851.97" x2="559.15" y2="860.94"/><line class="cls-2" x1="666.07" y1="817.92" x2="643.77" y2="826.89"/><line class="cls-2" x1="581.72" y1="826.27" x2="559.6" y2="816.84"/><line class="cls-2" x1="665.63" y1="862.02" x2="643.51" y2="852.6"/><line class="cls-2" x1="599.45" y1="870.32" x2="590.02" y2="892.44"/><line class="cls-2" x1="635.2" y1="786.42" x2="625.78" y2="808.54"/><line class="cls-2" x1="585.19" y1="820.04" x2="574.91" y2="812.77"/><line class="cls-2" x1="650.31" y1="866.09" x2="640.03" y2="858.82"/><line class="cls-2" x1="593.22" y1="866.85" x2="585.96" y2="877.13"/><line class="cls-2" x1="639.27" y1="801.73" x2="632" y2="812.01"/><line class="cls-2" x1="579.73" y1="832.61" x2="567.4" y2="830.05"/><line class="cls-2" x1="657.82" y1="848.81" x2="645.5" y2="846.25"/><line class="cls-2" x1="605.79" y1="872.31" x2="603.24" y2="884.64"/><line class="cls-2" x1="621.99" y1="794.22" x2="619.43" y2="806.55"/><line class="cls-2" x1="579.51" y1="845.11" x2="567.11" y2="847.24"/><line class="cls-2" x1="658.12" y1="831.62" x2="645.71" y2="833.75"/><line class="cls-2" x1="618.29" y1="872.53" x2="620.42" y2="884.94"/><line class="cls-2" x1="604.8" y1="793.92" x2="606.93" y2="806.33"/><line class="cls-2" x1="594.25" y1="811.31" x2="587.37" y2="800.77"/><line class="cls-2" x1="637.86" y1="878.09" x2="630.97" y2="867.55"/><line class="cls-2" x1="584.49" y1="857.79" x2="573.95" y2="864.68"/><line class="cls-2" x1="651.27" y1="814.18" x2="640.73" y2="821.07"/><path class="cls-2" d="M582.85,810.42A22.91,22.91,0,0,1,619,791.69a26.67,26.67,0,1,0,0,37.45,22.91,22.91,0,0,1-36.12-18.72Z" transform="translate(12.61 29.01)"/></g></svg>